G04*
G04 #@! TF.GenerationSoftware,Altium Limited,Altium Designer,18.1.7 (191)*
G04*
G04 Layer_Physical_Order=1*
G04 Layer_Color=255*
%FSLAX23Y23*%
%MOIN*%
G70*
G01*
G75*
%ADD10C,0.010*%
%ADD35R,0.022X0.057*%
%ADD36R,0.039X0.043*%
%ADD37R,0.091X0.075*%
%ADD38R,0.066X0.075*%
%ADD39R,0.036X0.050*%
%ADD40R,0.036X0.036*%
%ADD41C,0.040*%
%ADD42R,0.071X0.118*%
%ADD43R,0.063X0.138*%
%ADD44C,0.016*%
%ADD45C,0.020*%
%ADD46C,0.040*%
%ADD47C,0.030*%
%ADD48R,0.340X0.150*%
%ADD49R,0.130X0.140*%
%ADD50R,0.200X0.165*%
%ADD51R,0.110X0.140*%
%ADD52R,0.105X0.140*%
%ADD53R,0.080X0.080*%
%ADD54P,0.067X8X202.5*%
%ADD55C,0.062*%
%ADD56C,0.120*%
%ADD57C,0.100*%
%ADD58R,0.100X0.100*%
%ADD59C,0.276*%
%ADD60O,0.090X0.070*%
%ADD61C,0.030*%
%ADD62C,0.028*%
D10*
X26758Y6428D02*
Y6430D01*
X26650Y6320D02*
X26758Y6428D01*
X26020Y6320D02*
X26650D01*
X25955Y6255D02*
X26020Y6320D01*
X25955Y5695D02*
Y6255D01*
X25905Y5645D02*
X25955Y5695D01*
X25905Y5065D02*
Y5645D01*
D35*
X24885Y6130D02*
D03*
Y6223D02*
D03*
X24470Y6130D02*
D03*
Y6223D02*
D03*
X27120Y6135D02*
D03*
Y6228D02*
D03*
X27060Y5840D02*
D03*
Y5747D02*
D03*
X28140Y5840D02*
D03*
Y5747D02*
D03*
X24055Y6223D02*
D03*
Y6130D02*
D03*
D36*
X24800Y6268D02*
D03*
Y6335D02*
D03*
X24385Y6268D02*
D03*
Y6335D02*
D03*
X27035Y6273D02*
D03*
Y6340D02*
D03*
X23865Y5085D02*
D03*
Y5018D02*
D03*
X27840Y4978D02*
D03*
Y5045D02*
D03*
X27435Y4977D02*
D03*
Y5043D02*
D03*
X28060Y5840D02*
D03*
Y5773D02*
D03*
X27140Y5982D02*
D03*
Y5915D02*
D03*
X27355Y5047D02*
D03*
Y4980D02*
D03*
X28060Y5982D02*
D03*
Y5915D02*
D03*
X27760Y5045D02*
D03*
Y4978D02*
D03*
X27570Y4487D02*
D03*
Y4420D02*
D03*
X27670Y4488D02*
D03*
Y4422D02*
D03*
X27140Y5840D02*
D03*
Y5773D02*
D03*
X26950Y6133D02*
D03*
Y6200D02*
D03*
X23970Y6333D02*
D03*
Y6267D02*
D03*
X24800Y6128D02*
D03*
Y6195D02*
D03*
X24385Y6128D02*
D03*
Y6195D02*
D03*
X23970Y6128D02*
D03*
Y6195D02*
D03*
X27035Y6133D02*
D03*
Y6200D02*
D03*
D37*
X23225Y5380D02*
D03*
Y5199D02*
D03*
X28070Y5561D02*
D03*
Y5380D02*
D03*
X27120Y5561D02*
D03*
Y5380D02*
D03*
D38*
X23405D02*
D03*
Y5199D02*
D03*
D39*
X27800Y5225D02*
D03*
X27395D02*
D03*
D40*
X27837Y5145D02*
D03*
X27762D02*
D03*
X27357D02*
D03*
X27432D02*
D03*
D41*
X23525Y4465D02*
D03*
X28005Y6560D02*
D03*
D42*
X23560Y6295D02*
D03*
Y6000D02*
D03*
D43*
X23740Y5330D02*
D03*
Y5543D02*
D03*
D44*
X27570Y4975D02*
Y5480D01*
X27035Y6200D02*
Y6273D01*
Y6340D02*
Y6934D01*
X27034Y6935D02*
X27035Y6934D01*
X26873Y6628D02*
X26950Y6551D01*
Y6200D02*
Y6551D01*
X26900Y6135D02*
X27120D01*
X26705Y6165D02*
Y6230D01*
X26735Y6260D01*
X26845D01*
X26875Y6230D01*
Y6160D02*
Y6230D01*
Y6160D02*
X26900Y6135D01*
X27355Y5047D02*
X27357Y5049D01*
Y5145D01*
X27760Y5045D02*
X27762Y5047D01*
Y5145D01*
X26805Y5735D02*
X26880Y5660D01*
X27470D01*
X27670Y4685D02*
Y4730D01*
X27630Y4770D02*
X27670Y4730D01*
X25940Y4770D02*
X27630D01*
X25905Y4805D02*
X25940Y4770D01*
X25905Y4805D02*
Y4870D01*
X27413Y4422D02*
X27670D01*
X27370Y4465D02*
X27413Y4422D01*
X27370Y4465D02*
Y4685D01*
X27670Y4488D02*
Y4685D01*
X27570Y4487D02*
Y4685D01*
X26105Y5065D02*
Y5115D01*
X26130Y5140D01*
X26405D01*
X26540Y5185D02*
X26925D01*
X26505Y5065D02*
Y5150D01*
X26540Y5185D01*
X27760Y4978D02*
X27840D01*
X27663D02*
X27760D01*
X26560Y5140D02*
X26895D01*
X27125Y4910D01*
X27595D01*
X27663Y4978D01*
X27133Y4977D02*
X27435D01*
X26925Y5185D02*
X27133Y4977D01*
X27890Y5982D02*
X28060D01*
X27800Y6072D02*
X27890Y5982D01*
X27800Y6072D02*
Y6280D01*
X27140Y5982D02*
X27327D01*
X27395Y6050D01*
Y6280D01*
X28060Y5840D02*
X28140D01*
X28060D02*
Y5915D01*
X27825D02*
X28060D01*
X27795Y5945D02*
X27825Y5915D01*
X26945Y5880D02*
X27010Y5945D01*
X26135Y5880D02*
X26945D01*
X26105Y5910D02*
X26135Y5880D01*
X26105Y5910D02*
Y5965D01*
X27140Y5840D02*
Y5915D01*
X27060Y5840D02*
X27140D01*
X26045D02*
X27060D01*
X26005Y5880D02*
X26045Y5840D01*
X26005Y5880D02*
Y5965D01*
X26805Y4870D02*
Y5065D01*
X26705Y4870D02*
Y5065D01*
X26605Y4870D02*
Y5065D01*
X26505Y4870D02*
Y5065D01*
X26405Y4870D02*
Y5065D01*
X26305Y4870D02*
Y5065D01*
X26205Y4870D02*
Y5065D01*
X26105Y4870D02*
Y5065D01*
X26005Y4870D02*
Y5065D01*
X25905Y4870D02*
Y5065D01*
X25805Y4870D02*
Y5065D01*
X25705Y4870D02*
Y5065D01*
X25605Y4870D02*
Y5065D01*
X25505Y4870D02*
Y5065D01*
X25405Y4870D02*
Y5065D01*
X25305Y4870D02*
Y5065D01*
X25205Y4870D02*
Y5065D01*
X26805Y5965D02*
Y6165D01*
X26705Y5965D02*
Y6165D01*
X26605Y5965D02*
Y6165D01*
X26505Y5965D02*
Y6165D01*
X26405Y5965D02*
Y6165D01*
X26305Y5965D02*
Y6165D01*
X26205Y5965D02*
Y6165D01*
X26105Y5965D02*
Y6165D01*
X26005Y5965D02*
Y6165D01*
X25905Y5965D02*
Y6165D01*
X25805Y5965D02*
Y6165D01*
X25705Y5965D02*
Y6165D01*
X25605Y5965D02*
Y6165D01*
X25505Y5965D02*
Y6165D01*
X25405Y5965D02*
Y6165D01*
X25665Y6340D02*
X25705Y6300D01*
X24997Y6340D02*
X25665D01*
X24950Y6293D02*
X24997Y6340D01*
X25405Y6165D02*
Y6260D01*
X25385Y6280D02*
X25405Y6260D01*
X25030Y6280D02*
X25385D01*
X25010Y6260D02*
X25030Y6280D01*
X25010Y6100D02*
Y6260D01*
X24940Y6030D02*
X25010Y6100D01*
X24660Y6030D02*
X24940D01*
X24630Y6060D02*
X24660Y6030D01*
X24289Y6060D02*
X24630D01*
X24219Y6130D02*
X24289Y6060D01*
X24055Y6130D02*
X24219D01*
X25605Y6165D02*
Y6280D01*
X25575Y6310D02*
X25605Y6280D01*
X25010Y6310D02*
X25575D01*
X24980Y6280D02*
X25010Y6310D01*
X24980Y6110D02*
Y6280D01*
X24930Y6060D02*
X24980Y6110D01*
X24700Y6060D02*
X24930D01*
X24630Y6130D02*
X24700Y6060D01*
X24470Y6130D02*
X24630D01*
X25705Y6165D02*
Y6300D01*
X24950Y6150D02*
Y6293D01*
X24930Y6130D02*
X24950Y6150D01*
X24885Y6130D02*
X24930D01*
X23970Y6195D02*
Y6267D01*
X24385Y6195D02*
Y6268D01*
X24800Y6195D02*
Y6268D01*
X24883Y6128D02*
X24885Y6130D01*
X24800Y6128D02*
X24883D01*
X24468D02*
X24470Y6130D01*
X24385Y6128D02*
X24468D01*
X24053D02*
X24055Y6130D01*
X23970Y6128D02*
X24053D01*
X24800Y6335D02*
Y6485D01*
X24385Y6335D02*
X24387Y6337D01*
Y6485D01*
X23970Y6333D02*
X23973Y6337D01*
Y6485D01*
D45*
X28140Y5680D02*
Y5747D01*
X28060Y5715D02*
Y5773D01*
X27140Y5715D02*
Y5773D01*
X27058Y5745D02*
X27060Y5747D01*
X27005Y5745D02*
X27058D01*
X27120Y6228D02*
Y6300D01*
X24885Y6223D02*
Y6295D01*
X24470Y6223D02*
Y6295D01*
X24055Y6223D02*
Y6295D01*
X23865Y4960D02*
Y5018D01*
D46*
X23740Y5085D02*
X23865D01*
X26873Y6628D02*
X26896Y6651D01*
X26850Y6605D02*
X26873Y6628D01*
X24470Y4870D02*
X24570D01*
X24370D02*
X24470D01*
X24270D02*
X24370D01*
X23865D02*
X24270D01*
X23850Y4885D02*
X23865Y4870D01*
X23740Y4885D02*
X23850D01*
X24045Y4970D02*
X24640D01*
X23950Y5065D02*
X24045Y4970D01*
X23950Y5065D02*
Y5300D01*
X23920Y5330D02*
X23950Y5300D01*
X23740Y5330D02*
X23920D01*
Y5920D01*
X25845Y4685D02*
X27370D01*
X24640Y4970D02*
X24860Y4750D01*
X25780D01*
X25845Y4685D01*
X25205Y5965D02*
X25305D01*
Y6165D01*
X25205Y5965D02*
Y6165D01*
Y5900D02*
Y5965D01*
X25165Y5860D02*
X25205Y5900D01*
X24990Y5860D02*
X25165D01*
X24885Y5965D02*
X24990Y5860D01*
X24570Y5965D02*
X24885D01*
X23836Y6004D02*
X23920Y5920D01*
X24470Y5965D02*
X24570D01*
X24370D02*
X24470D01*
X24270D02*
X24370D01*
X23965D02*
X24270D01*
X23920Y5920D02*
X23965Y5965D01*
X24665Y6605D02*
X26345D01*
X24245D02*
X24665D01*
X24662Y6608D02*
X24665Y6605D01*
X24662Y6608D02*
Y6738D01*
X23836Y6605D02*
X24245D01*
X24249Y6609D01*
Y6738D01*
X26345Y6605D02*
X26850D01*
X26345D02*
Y6738D01*
X23836Y6605D02*
Y6738D01*
Y6004D02*
Y6605D01*
X26896Y6651D02*
Y6738D01*
X28068Y5561D02*
X28069Y5560D01*
X27585Y5561D02*
X28068D01*
X27585D02*
Y6738D01*
X27120Y5561D02*
X27585D01*
X28069Y5560D02*
X28070Y5561D01*
X27310Y7040D02*
X27540D01*
X23480D02*
X27310D01*
X27310Y6935D02*
Y7040D01*
Y6738D02*
Y6935D01*
Y7040D02*
X27310Y7040D01*
X23160Y6595D02*
X23355D01*
X23085Y6520D02*
X23160Y6595D01*
X23085Y5055D02*
Y6520D01*
X27585Y6935D02*
Y6995D01*
Y6738D02*
Y6935D01*
X23155Y4985D02*
X23252D01*
X23085Y5055D02*
X23155Y4985D01*
X23355Y6595D02*
X23430Y6670D01*
Y6990D01*
X23480Y7040D01*
X27540D02*
X27585Y6995D01*
X24249Y6738D02*
Y6935D01*
X24662Y6738D02*
Y6935D01*
X26345Y6738D02*
Y6935D01*
X26896Y6738D02*
Y6935D01*
X23836Y6738D02*
Y6935D01*
X23740Y5085D02*
Y5330D01*
X23290Y4885D02*
X23740D01*
X23252Y4923D02*
X23290Y4885D01*
X23252Y4923D02*
Y4985D01*
Y5075D01*
X23225Y5102D02*
X23252Y5075D01*
X23225Y5102D02*
Y5199D01*
X23405D01*
X23225Y5380D02*
Y5540D01*
Y6100D02*
Y6440D01*
Y6100D02*
X23325Y6000D01*
X23560D01*
Y6738D02*
Y6935D01*
Y6295D02*
Y6738D01*
D47*
X27120Y5380D02*
X27395D01*
X27800D02*
X28070D01*
X27723Y6738D02*
Y6935D01*
Y6522D02*
Y6738D01*
X27800Y6280D02*
Y6445D01*
X27723Y6522D02*
X27800Y6445D01*
X27447Y6738D02*
Y6935D01*
Y6527D02*
Y6738D01*
X27395Y6475D02*
X27447Y6527D01*
X27395Y6280D02*
Y6475D01*
X27800Y5225D02*
Y5380D01*
X27395Y5225D02*
Y5380D01*
D48*
X23810Y5330D02*
D03*
D49*
X23405Y5405D02*
D03*
D50*
X23740Y5543D02*
D03*
D51*
X27465Y5095D02*
D03*
D52*
X27868D02*
D03*
D53*
X24110Y5821D02*
D03*
X24210D02*
D03*
X24310D02*
D03*
X24410D02*
D03*
Y5721D02*
D03*
X24310D02*
D03*
X24210D02*
D03*
X24110D02*
D03*
X24410Y5621D02*
D03*
X24310D02*
D03*
X24210D02*
D03*
X24110D02*
D03*
X24410Y5521D02*
D03*
X24310D02*
D03*
X24210D02*
D03*
X24110D02*
D03*
X24410Y5421D02*
D03*
X24310D02*
D03*
X24210D02*
D03*
X24110D02*
D03*
X24410Y5321D02*
D03*
X24310D02*
D03*
X24210D02*
D03*
X24110D02*
D03*
X24410Y5220D02*
D03*
X24310D02*
D03*
X24210D02*
D03*
X24110D02*
D03*
X24510D02*
D03*
X24610D02*
D03*
X24710D02*
D03*
X24810D02*
D03*
X24510Y5321D02*
D03*
X24610D02*
D03*
X24710D02*
D03*
X24810D02*
D03*
X24510Y5421D02*
D03*
X24610D02*
D03*
X24710D02*
D03*
X24810D02*
D03*
X24510Y5521D02*
D03*
X24610D02*
D03*
X24710D02*
D03*
X24810D02*
D03*
X24510Y5621D02*
D03*
X24610D02*
D03*
X24710D02*
D03*
X24810D02*
D03*
X24510Y5721D02*
D03*
X24610D02*
D03*
X24710D02*
D03*
X24810D02*
D03*
Y5821D02*
D03*
X24710D02*
D03*
X24610D02*
D03*
X24510D02*
D03*
D54*
X24570Y5965D02*
D03*
Y5065D02*
D03*
Y4870D02*
D03*
X25105D02*
D03*
Y6165D02*
D03*
X27370Y4685D02*
D03*
X25105Y5065D02*
D03*
D55*
X24470Y5965D02*
D03*
X24370D02*
D03*
X24270D02*
D03*
X24470Y5065D02*
D03*
X24370D02*
D03*
X24270D02*
D03*
X24470Y4870D02*
D03*
X24370D02*
D03*
X24270D02*
D03*
X25205D02*
D03*
X25305D02*
D03*
X25405D02*
D03*
X25505D02*
D03*
X25605D02*
D03*
X25705D02*
D03*
X25805D02*
D03*
X25905D02*
D03*
X26005D02*
D03*
X26105D02*
D03*
X26205D02*
D03*
X26305D02*
D03*
X26405D02*
D03*
X26505D02*
D03*
X26605D02*
D03*
X26705D02*
D03*
X26805D02*
D03*
X25205Y6165D02*
D03*
X25305D02*
D03*
X25405D02*
D03*
X25505D02*
D03*
X25605D02*
D03*
X25705D02*
D03*
X25805D02*
D03*
X25905D02*
D03*
X26005D02*
D03*
X26105D02*
D03*
X26205D02*
D03*
X26305D02*
D03*
X26405D02*
D03*
X26505D02*
D03*
X26605D02*
D03*
X26705D02*
D03*
X26805D02*
D03*
X27670Y4685D02*
D03*
X27570D02*
D03*
X27470D02*
D03*
X26505Y5965D02*
D03*
X26405D02*
D03*
X26305D02*
D03*
X26205D02*
D03*
X26105D02*
D03*
X26005D02*
D03*
X25905D02*
D03*
X25805D02*
D03*
X25205D02*
D03*
X25305D02*
D03*
X25405D02*
D03*
X25505D02*
D03*
X25605D02*
D03*
X25705D02*
D03*
X26605D02*
D03*
X26705D02*
D03*
X26805D02*
D03*
Y5065D02*
D03*
X26705D02*
D03*
X26605D02*
D03*
X25705D02*
D03*
X25605D02*
D03*
X25505D02*
D03*
X25405D02*
D03*
X25305D02*
D03*
X25205D02*
D03*
X25805D02*
D03*
X25905D02*
D03*
X26005D02*
D03*
X26105D02*
D03*
X26205D02*
D03*
X26305D02*
D03*
X26405D02*
D03*
X26505D02*
D03*
X25105Y5965D02*
D03*
X23252Y4985D02*
D03*
X23390D02*
D03*
D56*
X27395Y5380D02*
D03*
Y6280D02*
D03*
X27800Y5380D02*
D03*
Y6280D02*
D03*
X23225Y6440D02*
D03*
Y5540D02*
D03*
D57*
X27723Y6935D02*
D03*
Y6738D02*
D03*
X27447Y6935D02*
D03*
Y6738D02*
D03*
X26483Y6935D02*
D03*
X26621D02*
D03*
Y6738D02*
D03*
X26483D02*
D03*
X26758D02*
D03*
Y6935D02*
D03*
X23698D02*
D03*
Y6738D02*
D03*
X27034D02*
D03*
X27172D02*
D03*
Y6935D02*
D03*
X27034D02*
D03*
X24800Y6738D02*
D03*
X24938D02*
D03*
Y6935D02*
D03*
X24800D02*
D03*
X24387Y6738D02*
D03*
X24525D02*
D03*
Y6935D02*
D03*
X24387D02*
D03*
X23973Y6738D02*
D03*
X24111D02*
D03*
Y6935D02*
D03*
X23973D02*
D03*
D58*
X27585D02*
D03*
Y6738D02*
D03*
X27310Y6935D02*
D03*
Y6738D02*
D03*
X26345Y6935D02*
D03*
Y6738D02*
D03*
X23560Y6935D02*
D03*
Y6738D02*
D03*
X26896D02*
D03*
Y6935D02*
D03*
X24662Y6738D02*
D03*
Y6935D02*
D03*
X24249Y6738D02*
D03*
Y6935D02*
D03*
X23836Y6738D02*
D03*
Y6935D02*
D03*
D59*
X25615Y6830D02*
D03*
X28005Y4550D02*
D03*
Y6830D02*
D03*
X25615Y4550D02*
D03*
X23225D02*
D03*
Y6830D02*
D03*
D60*
X23740Y4985D02*
D03*
Y4885D02*
D03*
Y5085D02*
D03*
D61*
X27570Y5490D02*
D03*
Y4975D02*
D03*
X26805Y5735D02*
D03*
X27470Y5660D02*
D03*
X26405Y5140D02*
D03*
X26560D02*
D03*
X27795Y5945D02*
D03*
X27010D02*
D03*
X26758Y6430D02*
D03*
X24800Y6485D02*
D03*
X24387D02*
D03*
X23973D02*
D03*
D62*
X23865Y4960D02*
D03*
X28140Y5680D02*
D03*
X28060Y5715D02*
D03*
X27885Y5145D02*
D03*
X27840Y5100D02*
D03*
X27895Y5045D02*
D03*
X27490D02*
D03*
X27430Y5100D02*
D03*
X27480Y5145D02*
D03*
X27005Y5745D02*
D03*
X27140Y5715D02*
D03*
X27120Y6300D02*
D03*
X24885Y6295D02*
D03*
X24470D02*
D03*
X24055D02*
D03*
X23380Y5445D02*
D03*
X23430D02*
D03*
X23680Y5500D02*
D03*
Y5540D02*
D03*
Y5580D02*
D03*
X23800D02*
D03*
X23799Y5500D02*
D03*
X23800Y5540D02*
D03*
M02*
