M48
;Layer_Color=9474304
;FILE_FORMAT=2:3
INCH,LZ
;TYPE=PLATED
T1F00S00C0.020
T2F00S00C0.031
T3F00S00C0.035
T4F00S00C0.047
T5F00S00C0.050
T6F00S00C0.126
%
T01
X2814Y0568
X2806Y05715
X27795Y05945
X2747Y0566
X2757Y0549
X2748Y05145
X2743Y051
X2749Y05045
X2757Y04975
X2784Y051
X27885Y05145
X27895Y05045
X2714Y05715
X27005Y05745
X2701Y05945
X26805Y05735
X2656Y0514
X26405
X23865Y0496
X23799Y055
X238Y0554
Y0558
X2368
Y0554
Y055
X2343Y05445
X2338
X24055Y06295
X23973Y06485
X24387
X2447Y06295
X24885
X248Y06485
X26758Y0643
X2712Y063
T02
X2374Y04885
Y04985
Y05085
X2339Y04985
X23252
T03
X2767Y04685
X2757
X2747
X2737
X26805Y0487
X26705
X26605
Y05065
X26705
X26805
Y05965
X26705
X26605
Y06165
X26705
X26805
X26505
X26405
X26305
X26205
X26105
X26005
X25905
X25805
X25705
X25605
X25505
X25405
X25305
X25205
X25105
Y05965
X25205
X25305
X25405
X25505
X25605
X25705
X25805
X25905
X26005
X26105
X26205
X26305
X26405
X26505
Y05065
X26405
X26305
X26205
X26105
X26005
X25905
X25805
X25705
X25605
X25505
X25405
X25305
X25205
X25105
Y0487
X25205
X25305
X25405
X25505
X25605
X25705
X25805
X25905
X26005
X26105
X26205
X26305
X26405
X26505
X2457
X2447
X2437
X2427
Y05065
X2437
X2447
X2457
X2461Y0522
X2451
X2441
X2431
X2421
X2411
Y05321
Y05421
Y05521
Y05621
Y05721
Y05821
X2421
X2431
X2441
Y05721
X2431
X2421
Y05621
X2431
X2441
Y05521
X2431
X2421
Y05421
X2431
X2441
Y05321
X2431
X2421
X2451
X2461
X2471
X2481
Y05421
X2471
X2461
X2451
Y05521
X2461
X2471
X2481
Y05621
X2471
X2461
X2451
Y05721
X2461
X2471
X2481
Y05821
X2471
X2461
X2451
X2447Y05965
X2457
X2437
X2427
X2471Y0522
X2481
T04
X24938Y06738
X248
X24662
X24525
X24387
X24249
X24111
X23973
X23836
X23698
X2356
Y06935
X23698
X23836
X23973
X24111
X24249
X24387
X24525
X24662
X248
X24938
X26345
X26483
Y06738
X26345
X26621
X26758
X26896
X27034
X27172
X2731
X27447
X27585
X27723
Y06935
X27585
X27447
X2731
X27172
X27034
X26896
X26758
X26621
T05
X278Y0538
X27395
X23225Y0554
Y0644
X27395Y0628
X278
T06
X23225Y0455
X25615
X28005
X23225Y0683
X25615
X28005
M30
