G04*
G04 #@! TF.GenerationSoftware,Altium Limited,Altium Designer,18.1.7 (191)*
G04*
G04 Layer_Color=16711935*
%FSLAX23Y23*%
%MOIN*%
G70*
G01*
G75*
%ADD27R,0.088X0.088*%
%ADD28P,0.076X8X202.5*%
%ADD29C,0.070*%
%ADD30C,0.128*%
%ADD31C,0.108*%
%ADD32R,0.108X0.108*%
%ADD33C,0.284*%
%ADD34O,0.098X0.078*%
D27*
X24110Y5821D02*
D03*
X24210D02*
D03*
X24310D02*
D03*
X24410D02*
D03*
Y5721D02*
D03*
X24310D02*
D03*
X24210D02*
D03*
X24110D02*
D03*
X24410Y5621D02*
D03*
X24310D02*
D03*
X24210D02*
D03*
X24110D02*
D03*
X24410Y5521D02*
D03*
X24310D02*
D03*
X24210D02*
D03*
X24110D02*
D03*
X24410Y5421D02*
D03*
X24310D02*
D03*
X24210D02*
D03*
X24110D02*
D03*
X24410Y5321D02*
D03*
X24310D02*
D03*
X24210D02*
D03*
X24110D02*
D03*
X24410Y5220D02*
D03*
X24310D02*
D03*
X24210D02*
D03*
X24110D02*
D03*
X24510D02*
D03*
X24610D02*
D03*
X24710D02*
D03*
X24810D02*
D03*
X24510Y5321D02*
D03*
X24610D02*
D03*
X24710D02*
D03*
X24810D02*
D03*
X24510Y5421D02*
D03*
X24610D02*
D03*
X24710D02*
D03*
X24810D02*
D03*
X24510Y5521D02*
D03*
X24610D02*
D03*
X24710D02*
D03*
X24810D02*
D03*
X24510Y5621D02*
D03*
X24610D02*
D03*
X24710D02*
D03*
X24810D02*
D03*
X24510Y5721D02*
D03*
X24610D02*
D03*
X24710D02*
D03*
X24810D02*
D03*
Y5821D02*
D03*
X24710D02*
D03*
X24610D02*
D03*
X24510D02*
D03*
D28*
X24570Y5965D02*
D03*
Y5065D02*
D03*
Y4870D02*
D03*
X25105D02*
D03*
Y6165D02*
D03*
X27370Y4685D02*
D03*
X25105Y5065D02*
D03*
D29*
X24470Y5965D02*
D03*
X24370D02*
D03*
X24270D02*
D03*
X24470Y5065D02*
D03*
X24370D02*
D03*
X24270D02*
D03*
X24470Y4870D02*
D03*
X24370D02*
D03*
X24270D02*
D03*
X25205D02*
D03*
X25305D02*
D03*
X25405D02*
D03*
X25505D02*
D03*
X25605D02*
D03*
X25705D02*
D03*
X25805D02*
D03*
X25905D02*
D03*
X26005D02*
D03*
X26105D02*
D03*
X26205D02*
D03*
X26305D02*
D03*
X26405D02*
D03*
X26505D02*
D03*
X26605D02*
D03*
X26705D02*
D03*
X26805D02*
D03*
X25205Y6165D02*
D03*
X25305D02*
D03*
X25405D02*
D03*
X25505D02*
D03*
X25605D02*
D03*
X25705D02*
D03*
X25805D02*
D03*
X25905D02*
D03*
X26005D02*
D03*
X26105D02*
D03*
X26205D02*
D03*
X26305D02*
D03*
X26405D02*
D03*
X26505D02*
D03*
X26605D02*
D03*
X26705D02*
D03*
X26805D02*
D03*
X27670Y4685D02*
D03*
X27570D02*
D03*
X27470D02*
D03*
X26505Y5965D02*
D03*
X26405D02*
D03*
X26305D02*
D03*
X26205D02*
D03*
X26105D02*
D03*
X26005D02*
D03*
X25905D02*
D03*
X25805D02*
D03*
X25205D02*
D03*
X25305D02*
D03*
X25405D02*
D03*
X25505D02*
D03*
X25605D02*
D03*
X25705D02*
D03*
X26605D02*
D03*
X26705D02*
D03*
X26805D02*
D03*
Y5065D02*
D03*
X26705D02*
D03*
X26605D02*
D03*
X25705D02*
D03*
X25605D02*
D03*
X25505D02*
D03*
X25405D02*
D03*
X25305D02*
D03*
X25205D02*
D03*
X25805D02*
D03*
X25905D02*
D03*
X26005D02*
D03*
X26105D02*
D03*
X26205D02*
D03*
X26305D02*
D03*
X26405D02*
D03*
X26505D02*
D03*
X25105Y5965D02*
D03*
X23252Y4985D02*
D03*
X23390D02*
D03*
D30*
X27395Y5380D02*
D03*
Y6280D02*
D03*
X27800Y5380D02*
D03*
Y6280D02*
D03*
X23225Y6440D02*
D03*
Y5540D02*
D03*
D31*
X27723Y6935D02*
D03*
Y6738D02*
D03*
X27447Y6935D02*
D03*
Y6738D02*
D03*
X26483Y6935D02*
D03*
X26621D02*
D03*
Y6738D02*
D03*
X26483D02*
D03*
X26758D02*
D03*
Y6935D02*
D03*
X23698D02*
D03*
Y6738D02*
D03*
X27034D02*
D03*
X27172D02*
D03*
Y6935D02*
D03*
X27034D02*
D03*
X24800Y6738D02*
D03*
X24938D02*
D03*
Y6935D02*
D03*
X24800D02*
D03*
X24387Y6738D02*
D03*
X24525D02*
D03*
Y6935D02*
D03*
X24387D02*
D03*
X23973Y6738D02*
D03*
X24111D02*
D03*
Y6935D02*
D03*
X23973D02*
D03*
D32*
X27585D02*
D03*
Y6738D02*
D03*
X27310Y6935D02*
D03*
Y6738D02*
D03*
X26345Y6935D02*
D03*
Y6738D02*
D03*
X23560Y6935D02*
D03*
Y6738D02*
D03*
X26896D02*
D03*
Y6935D02*
D03*
X24662Y6738D02*
D03*
Y6935D02*
D03*
X24249Y6738D02*
D03*
Y6935D02*
D03*
X23836Y6738D02*
D03*
Y6935D02*
D03*
D33*
X25615Y6830D02*
D03*
X28005Y4550D02*
D03*
Y6830D02*
D03*
X25615Y4550D02*
D03*
X23225D02*
D03*
Y6830D02*
D03*
D34*
X23740Y4985D02*
D03*
Y4885D02*
D03*
Y5085D02*
D03*
M02*
