G04*
G04 #@! TF.GenerationSoftware,Altium Limited,Altium Designer,18.1.7 (191)*
G04*
G04 Layer_Physical_Order=2*
G04 Layer_Color=16711680*
%FSLAX23Y23*%
%MOIN*%
G70*
G01*
G75*
%ADD10C,0.010*%
%ADD44C,0.016*%
%ADD46C,0.040*%
%ADD53R,0.080X0.080*%
%ADD54P,0.067X8X202.5*%
%ADD55C,0.062*%
%ADD56C,0.120*%
%ADD57C,0.100*%
%ADD58R,0.100X0.100*%
%ADD59C,0.276*%
%ADD60O,0.090X0.070*%
%ADD61C,0.030*%
%ADD62C,0.028*%
G36*
X28195Y4310D02*
X23035D01*
Y7070D01*
X28195D01*
Y4310D01*
D02*
G37*
%LPC*%
G36*
X27647Y6997D02*
X27523D01*
Y6873D01*
X27647D01*
Y6997D01*
D02*
G37*
G36*
X27372D02*
X27248D01*
Y6873D01*
X27372D01*
Y6997D01*
D02*
G37*
G36*
X26958D02*
X26834D01*
Y6873D01*
X26958D01*
Y6997D01*
D02*
G37*
G36*
X26407D02*
X26283D01*
Y6873D01*
X26407D01*
Y6997D01*
D02*
G37*
G36*
X24724D02*
X24600D01*
Y6873D01*
X24724D01*
Y6997D01*
D02*
G37*
G36*
X24311D02*
X24187D01*
Y6873D01*
X24311D01*
Y6997D01*
D02*
G37*
G36*
X23898D02*
X23774D01*
Y6873D01*
X23898D01*
Y6997D01*
D02*
G37*
G36*
X23622D02*
X23498D01*
Y6873D01*
X23622D01*
Y6997D01*
D02*
G37*
G36*
X27723Y6997D02*
X27711Y6996D01*
X27699Y6993D01*
X27688Y6987D01*
X27679Y6979D01*
X27671Y6970D01*
X27665Y6959D01*
X27662Y6947D01*
X27661Y6935D01*
X27662Y6923D01*
X27665Y6911D01*
X27671Y6900D01*
X27679Y6891D01*
X27688Y6883D01*
X27699Y6877D01*
X27711Y6874D01*
X27723Y6873D01*
X27735Y6874D01*
X27747Y6877D01*
X27758Y6883D01*
X27767Y6891D01*
X27775Y6900D01*
X27781Y6911D01*
X27784Y6923D01*
X27785Y6935D01*
X27784Y6947D01*
X27781Y6959D01*
X27775Y6970D01*
X27767Y6979D01*
X27758Y6987D01*
X27747Y6993D01*
X27735Y6996D01*
X27723Y6997D01*
D02*
G37*
G36*
X27447D02*
X27435Y6996D01*
X27424Y6993D01*
X27413Y6987D01*
X27403Y6979D01*
X27396Y6970D01*
X27390Y6959D01*
X27386Y6947D01*
X27385Y6935D01*
X27386Y6923D01*
X27390Y6911D01*
X27396Y6900D01*
X27403Y6891D01*
X27413Y6883D01*
X27424Y6877D01*
X27435Y6874D01*
X27447Y6873D01*
X27460Y6874D01*
X27471Y6877D01*
X27482Y6883D01*
X27491Y6891D01*
X27499Y6900D01*
X27505Y6911D01*
X27508Y6923D01*
X27510Y6935D01*
X27508Y6947D01*
X27505Y6959D01*
X27499Y6970D01*
X27491Y6979D01*
X27482Y6987D01*
X27471Y6993D01*
X27460Y6996D01*
X27447Y6997D01*
D02*
G37*
G36*
X27034D02*
X27022Y6996D01*
X27010Y6993D01*
X26999Y6987D01*
X26990Y6979D01*
X26982Y6970D01*
X26976Y6959D01*
X26973Y6947D01*
X26972Y6935D01*
X26973Y6923D01*
X26976Y6911D01*
X26982Y6900D01*
X26990Y6891D01*
X26999Y6883D01*
X27010Y6877D01*
X27022Y6874D01*
X27034Y6873D01*
X27046Y6874D01*
X27058Y6877D01*
X27069Y6883D01*
X27078Y6891D01*
X27086Y6900D01*
X27092Y6911D01*
X27095Y6923D01*
X27096Y6935D01*
X27095Y6947D01*
X27092Y6959D01*
X27086Y6970D01*
X27078Y6979D01*
X27069Y6987D01*
X27058Y6993D01*
X27046Y6996D01*
X27034Y6997D01*
D02*
G37*
G36*
X28005Y6980D02*
X27981Y6978D01*
X27959Y6973D01*
X27937Y6964D01*
X27917Y6952D01*
X27899Y6936D01*
X27883Y6918D01*
X27871Y6898D01*
X27862Y6876D01*
X27857Y6854D01*
X27855Y6830D01*
X27857Y6806D01*
X27862Y6784D01*
X27871Y6762D01*
X27883Y6742D01*
X27899Y6724D01*
X27917Y6708D01*
X27937Y6696D01*
X27959Y6687D01*
X27981Y6682D01*
X28005Y6680D01*
X28029Y6682D01*
X28051Y6687D01*
X28073Y6696D01*
X28093Y6708D01*
X28111Y6724D01*
X28127Y6742D01*
X28139Y6762D01*
X28148Y6784D01*
X28153Y6806D01*
X28155Y6830D01*
X28153Y6854D01*
X28148Y6876D01*
X28139Y6898D01*
X28127Y6918D01*
X28111Y6936D01*
X28093Y6952D01*
X28073Y6964D01*
X28051Y6973D01*
X28029Y6978D01*
X28005Y6980D01*
D02*
G37*
G36*
X25615D02*
X25591Y6978D01*
X25569Y6973D01*
X25547Y6964D01*
X25527Y6952D01*
X25509Y6936D01*
X25493Y6918D01*
X25481Y6898D01*
X25472Y6876D01*
X25467Y6854D01*
X25465Y6830D01*
X25467Y6806D01*
X25472Y6784D01*
X25481Y6762D01*
X25493Y6742D01*
X25509Y6724D01*
X25527Y6708D01*
X25547Y6696D01*
X25569Y6687D01*
X25591Y6682D01*
X25615Y6680D01*
X25639Y6682D01*
X25661Y6687D01*
X25683Y6696D01*
X25703Y6708D01*
X25721Y6724D01*
X25737Y6742D01*
X25749Y6762D01*
X25758Y6784D01*
X25763Y6806D01*
X25765Y6830D01*
X25763Y6854D01*
X25758Y6876D01*
X25749Y6898D01*
X25737Y6918D01*
X25721Y6936D01*
X25703Y6952D01*
X25683Y6964D01*
X25661Y6973D01*
X25639Y6978D01*
X25615Y6980D01*
D02*
G37*
G36*
X23225D02*
X23201Y6978D01*
X23179Y6973D01*
X23157Y6964D01*
X23137Y6952D01*
X23119Y6936D01*
X23103Y6918D01*
X23091Y6898D01*
X23082Y6876D01*
X23077Y6854D01*
X23075Y6830D01*
X23077Y6806D01*
X23082Y6784D01*
X23091Y6762D01*
X23103Y6742D01*
X23119Y6724D01*
X23137Y6708D01*
X23157Y6696D01*
X23179Y6687D01*
X23201Y6682D01*
X23225Y6680D01*
X23249Y6682D01*
X23271Y6687D01*
X23293Y6696D01*
X23313Y6708D01*
X23331Y6724D01*
X23347Y6742D01*
X23359Y6762D01*
X23368Y6784D01*
X23373Y6806D01*
X23375Y6830D01*
X23373Y6854D01*
X23368Y6876D01*
X23359Y6898D01*
X23347Y6918D01*
X23331Y6936D01*
X23313Y6952D01*
X23293Y6964D01*
X23271Y6973D01*
X23249Y6978D01*
X23225Y6980D01*
D02*
G37*
G36*
X27647Y6800D02*
X27523D01*
Y6676D01*
X27647D01*
Y6800D01*
D02*
G37*
G36*
X27372D02*
X27248D01*
Y6676D01*
X27372D01*
Y6800D01*
D02*
G37*
G36*
X26958D02*
X26834D01*
Y6676D01*
X26958D01*
Y6800D01*
D02*
G37*
G36*
X26407D02*
X26283D01*
Y6676D01*
X26407D01*
Y6800D01*
D02*
G37*
G36*
X24724D02*
X24600D01*
Y6676D01*
X24724D01*
Y6800D01*
D02*
G37*
G36*
X24311D02*
X24187D01*
Y6676D01*
X24311D01*
Y6800D01*
D02*
G37*
G36*
X23898D02*
X23774D01*
Y6676D01*
X23898D01*
Y6800D01*
D02*
G37*
G36*
X23622D02*
X23498D01*
Y6676D01*
X23622D01*
Y6800D01*
D02*
G37*
G36*
X27723Y6800D02*
X27711Y6799D01*
X27699Y6796D01*
X27688Y6790D01*
X27679Y6782D01*
X27671Y6773D01*
X27665Y6762D01*
X27662Y6750D01*
X27661Y6738D01*
X27662Y6726D01*
X27665Y6714D01*
X27671Y6704D01*
X27679Y6694D01*
X27688Y6686D01*
X27699Y6681D01*
X27711Y6677D01*
X27723Y6676D01*
X27735Y6677D01*
X27747Y6681D01*
X27758Y6686D01*
X27767Y6694D01*
X27775Y6704D01*
X27781Y6714D01*
X27784Y6726D01*
X27785Y6738D01*
X27784Y6750D01*
X27781Y6762D01*
X27775Y6773D01*
X27767Y6782D01*
X27758Y6790D01*
X27747Y6796D01*
X27735Y6799D01*
X27723Y6800D01*
D02*
G37*
G36*
X27447D02*
X27435Y6799D01*
X27424Y6796D01*
X27413Y6790D01*
X27403Y6782D01*
X27396Y6773D01*
X27390Y6762D01*
X27386Y6750D01*
X27385Y6738D01*
X27386Y6726D01*
X27390Y6714D01*
X27396Y6704D01*
X27403Y6694D01*
X27413Y6686D01*
X27424Y6681D01*
X27435Y6677D01*
X27447Y6676D01*
X27460Y6677D01*
X27471Y6681D01*
X27482Y6686D01*
X27491Y6694D01*
X27499Y6704D01*
X27505Y6714D01*
X27508Y6726D01*
X27510Y6738D01*
X27508Y6750D01*
X27505Y6762D01*
X27499Y6773D01*
X27491Y6782D01*
X27482Y6790D01*
X27471Y6796D01*
X27460Y6799D01*
X27447Y6800D01*
D02*
G37*
G36*
X27034D02*
X27022Y6799D01*
X27010Y6796D01*
X26999Y6790D01*
X26990Y6782D01*
X26982Y6773D01*
X26976Y6762D01*
X26973Y6750D01*
X26972Y6738D01*
X26973Y6726D01*
X26976Y6714D01*
X26982Y6704D01*
X26990Y6694D01*
X26999Y6686D01*
X27010Y6681D01*
X27022Y6677D01*
X27034Y6676D01*
X27046Y6677D01*
X27058Y6681D01*
X27069Y6686D01*
X27078Y6694D01*
X27086Y6704D01*
X27092Y6714D01*
X27095Y6726D01*
X27096Y6738D01*
X27095Y6750D01*
X27092Y6762D01*
X27086Y6773D01*
X27078Y6782D01*
X27069Y6790D01*
X27058Y6796D01*
X27046Y6799D01*
X27034Y6800D01*
D02*
G37*
G36*
X24800Y6997D02*
X24788Y6996D01*
X24776Y6993D01*
X24766Y6987D01*
X24756Y6979D01*
X24748Y6970D01*
X24743Y6959D01*
X24739Y6947D01*
X24738Y6935D01*
X24739Y6923D01*
X24743Y6911D01*
X24748Y6900D01*
X24756Y6891D01*
X24766Y6883D01*
X24776Y6877D01*
X24780Y6876D01*
Y6797D01*
X24776Y6796D01*
X24766Y6790D01*
X24756Y6782D01*
X24748Y6773D01*
X24743Y6762D01*
X24739Y6750D01*
X24738Y6738D01*
X24739Y6726D01*
X24743Y6714D01*
X24748Y6704D01*
X24756Y6694D01*
X24766Y6686D01*
X24776Y6681D01*
X24780Y6680D01*
Y6503D01*
X24776Y6499D01*
X24774Y6492D01*
X24773Y6485D01*
X24774Y6478D01*
X24776Y6471D01*
X24781Y6466D01*
X24786Y6461D01*
X24793Y6459D01*
X24800Y6458D01*
X24807Y6459D01*
X24814Y6461D01*
X24819Y6466D01*
X24824Y6471D01*
X24826Y6478D01*
X24827Y6485D01*
X24826Y6492D01*
X24824Y6499D01*
X24821Y6503D01*
Y6680D01*
X24824Y6681D01*
X24835Y6686D01*
X24844Y6694D01*
X24852Y6704D01*
X24858Y6714D01*
X24861Y6726D01*
X24862Y6738D01*
X24861Y6750D01*
X24858Y6762D01*
X24852Y6773D01*
X24844Y6782D01*
X24835Y6790D01*
X24824Y6796D01*
X24821Y6797D01*
Y6876D01*
X24824Y6877D01*
X24835Y6883D01*
X24844Y6891D01*
X24852Y6900D01*
X24858Y6911D01*
X24861Y6923D01*
X24862Y6935D01*
X24861Y6947D01*
X24858Y6959D01*
X24852Y6970D01*
X24844Y6979D01*
X24835Y6987D01*
X24824Y6993D01*
X24812Y6996D01*
X24800Y6997D01*
D02*
G37*
G36*
X24387D02*
X24375Y6996D01*
X24363Y6993D01*
X24352Y6987D01*
X24343Y6979D01*
X24335Y6970D01*
X24329Y6959D01*
X24326Y6947D01*
X24324Y6935D01*
X24326Y6923D01*
X24329Y6911D01*
X24335Y6900D01*
X24343Y6891D01*
X24352Y6883D01*
X24363Y6877D01*
X24366Y6876D01*
Y6797D01*
X24363Y6796D01*
X24352Y6790D01*
X24343Y6782D01*
X24335Y6773D01*
X24329Y6762D01*
X24326Y6750D01*
X24324Y6738D01*
X24326Y6726D01*
X24329Y6714D01*
X24335Y6704D01*
X24343Y6694D01*
X24352Y6686D01*
X24363Y6681D01*
X24366Y6680D01*
Y6503D01*
X24363Y6499D01*
X24360Y6492D01*
X24360Y6485D01*
X24360Y6478D01*
X24363Y6471D01*
X24368Y6466D01*
X24373Y6461D01*
X24380Y6459D01*
X24387Y6458D01*
X24394Y6459D01*
X24400Y6461D01*
X24406Y6466D01*
X24410Y6471D01*
X24413Y6478D01*
X24414Y6485D01*
X24413Y6492D01*
X24410Y6499D01*
X24407Y6503D01*
Y6680D01*
X24411Y6681D01*
X24421Y6686D01*
X24431Y6694D01*
X24439Y6704D01*
X24444Y6714D01*
X24448Y6726D01*
X24449Y6738D01*
X24448Y6750D01*
X24444Y6762D01*
X24439Y6773D01*
X24431Y6782D01*
X24421Y6790D01*
X24411Y6796D01*
X24407Y6797D01*
Y6876D01*
X24411Y6877D01*
X24421Y6883D01*
X24431Y6891D01*
X24439Y6900D01*
X24444Y6911D01*
X24448Y6923D01*
X24449Y6935D01*
X24448Y6947D01*
X24444Y6959D01*
X24439Y6970D01*
X24431Y6979D01*
X24421Y6987D01*
X24411Y6993D01*
X24399Y6996D01*
X24387Y6997D01*
D02*
G37*
G36*
X23973D02*
X23961Y6996D01*
X23950Y6993D01*
X23939Y6987D01*
X23929Y6979D01*
X23922Y6970D01*
X23916Y6959D01*
X23912Y6947D01*
X23911Y6935D01*
X23912Y6923D01*
X23916Y6911D01*
X23922Y6900D01*
X23929Y6891D01*
X23939Y6883D01*
X23950Y6877D01*
X23953Y6876D01*
Y6797D01*
X23950Y6796D01*
X23939Y6790D01*
X23929Y6782D01*
X23922Y6773D01*
X23916Y6762D01*
X23912Y6750D01*
X23911Y6738D01*
X23912Y6726D01*
X23916Y6714D01*
X23922Y6704D01*
X23929Y6694D01*
X23939Y6686D01*
X23950Y6681D01*
X23953Y6680D01*
Y6503D01*
X23950Y6499D01*
X23947Y6492D01*
X23946Y6485D01*
X23947Y6478D01*
X23950Y6471D01*
X23954Y6466D01*
X23960Y6461D01*
X23966Y6459D01*
X23973Y6458D01*
X23980Y6459D01*
X23987Y6461D01*
X23993Y6466D01*
X23997Y6471D01*
X24000Y6478D01*
X24001Y6485D01*
X24000Y6492D01*
X23997Y6499D01*
X23994Y6503D01*
Y6680D01*
X23997Y6681D01*
X24008Y6686D01*
X24017Y6694D01*
X24025Y6704D01*
X24031Y6714D01*
X24034Y6726D01*
X24036Y6738D01*
X24034Y6750D01*
X24031Y6762D01*
X24025Y6773D01*
X24017Y6782D01*
X24008Y6790D01*
X23997Y6796D01*
X23994Y6797D01*
Y6876D01*
X23997Y6877D01*
X24008Y6883D01*
X24017Y6891D01*
X24025Y6900D01*
X24031Y6911D01*
X24034Y6923D01*
X24036Y6935D01*
X24034Y6947D01*
X24031Y6959D01*
X24025Y6970D01*
X24017Y6979D01*
X24008Y6987D01*
X23997Y6993D01*
X23986Y6996D01*
X23973Y6997D01*
D02*
G37*
G36*
X26758D02*
X26746Y6996D01*
X26735Y6993D01*
X26724Y6987D01*
X26714Y6979D01*
X26707Y6970D01*
X26701Y6959D01*
X26697Y6947D01*
X26696Y6935D01*
X26697Y6923D01*
X26701Y6911D01*
X26707Y6900D01*
X26714Y6891D01*
X26724Y6883D01*
X26735Y6877D01*
X26741Y6875D01*
Y6798D01*
X26735Y6796D01*
X26724Y6790D01*
X26714Y6782D01*
X26707Y6773D01*
X26701Y6762D01*
X26697Y6750D01*
X26696Y6738D01*
X26697Y6726D01*
X26701Y6714D01*
X26707Y6704D01*
X26714Y6694D01*
X26724Y6686D01*
X26735Y6681D01*
X26741Y6679D01*
Y6451D01*
X26739Y6449D01*
X26735Y6444D01*
X26732Y6437D01*
X26731Y6430D01*
X26732Y6424D01*
X26729Y6422D01*
X26727Y6421D01*
X26641Y6508D01*
Y6680D01*
X26644Y6681D01*
X26655Y6686D01*
X26665Y6694D01*
X26672Y6704D01*
X26678Y6714D01*
X26682Y6726D01*
X26683Y6738D01*
X26682Y6750D01*
X26678Y6762D01*
X26672Y6773D01*
X26665Y6782D01*
X26655Y6790D01*
X26644Y6796D01*
X26641Y6797D01*
Y6876D01*
X26644Y6877D01*
X26655Y6883D01*
X26665Y6891D01*
X26672Y6900D01*
X26678Y6911D01*
X26682Y6923D01*
X26683Y6935D01*
X26682Y6947D01*
X26678Y6959D01*
X26672Y6970D01*
X26665Y6979D01*
X26655Y6987D01*
X26644Y6993D01*
X26633Y6996D01*
X26621Y6997D01*
X26608Y6996D01*
X26597Y6993D01*
X26586Y6987D01*
X26577Y6979D01*
X26569Y6970D01*
X26563Y6959D01*
X26559Y6947D01*
X26558Y6935D01*
X26559Y6923D01*
X26563Y6911D01*
X26569Y6900D01*
X26577Y6891D01*
X26586Y6883D01*
X26597Y6877D01*
X26600Y6876D01*
Y6797D01*
X26597Y6796D01*
X26586Y6790D01*
X26577Y6782D01*
X26569Y6773D01*
X26563Y6762D01*
X26559Y6750D01*
X26558Y6738D01*
X26559Y6726D01*
X26563Y6714D01*
X26569Y6704D01*
X26577Y6694D01*
X26586Y6686D01*
X26597Y6681D01*
X26600Y6680D01*
Y6499D01*
X26602Y6492D01*
X26606Y6485D01*
X26785Y6307D01*
Y6203D01*
X26783Y6203D01*
X26774Y6196D01*
X26767Y6187D01*
X26763Y6176D01*
X26762Y6165D01*
X26763Y6154D01*
X26767Y6143D01*
X26774Y6134D01*
X26783Y6127D01*
X26794Y6123D01*
X26805Y6122D01*
X26816Y6123D01*
X26827Y6127D01*
X26836Y6134D01*
X26843Y6143D01*
X26847Y6154D01*
X26848Y6165D01*
X26847Y6176D01*
X26843Y6187D01*
X26836Y6196D01*
X26827Y6203D01*
X26825Y6203D01*
Y6315D01*
X26824Y6323D01*
X26819Y6329D01*
X26750Y6399D01*
X26750Y6401D01*
X26752Y6404D01*
X26758Y6403D01*
X26765Y6404D01*
X26772Y6406D01*
X26778Y6411D01*
X26782Y6416D01*
X26785Y6423D01*
X26786Y6430D01*
X26785Y6437D01*
X26782Y6444D01*
X26778Y6449D01*
X26776Y6451D01*
Y6679D01*
X26782Y6681D01*
X26793Y6686D01*
X26802Y6694D01*
X26810Y6704D01*
X26816Y6714D01*
X26819Y6726D01*
X26821Y6738D01*
X26819Y6750D01*
X26816Y6762D01*
X26810Y6773D01*
X26802Y6782D01*
X26793Y6790D01*
X26782Y6796D01*
X26776Y6798D01*
Y6875D01*
X26782Y6877D01*
X26793Y6883D01*
X26802Y6891D01*
X26810Y6900D01*
X26816Y6911D01*
X26819Y6923D01*
X26821Y6935D01*
X26819Y6947D01*
X26816Y6959D01*
X26810Y6970D01*
X26802Y6979D01*
X26793Y6987D01*
X26782Y6993D01*
X26771Y6996D01*
X26758Y6997D01*
D02*
G37*
G36*
X23225Y6512D02*
X23211Y6511D01*
X23197Y6507D01*
X23185Y6500D01*
X23174Y6491D01*
X23165Y6480D01*
X23158Y6468D01*
X23154Y6454D01*
X23153Y6440D01*
X23154Y6426D01*
X23158Y6412D01*
X23165Y6400D01*
X23174Y6389D01*
X23185Y6380D01*
X23197Y6373D01*
X23211Y6369D01*
X23225Y6368D01*
X23239Y6369D01*
X23253Y6373D01*
X23265Y6380D01*
X23276Y6389D01*
X23285Y6400D01*
X23292Y6412D01*
X23296Y6426D01*
X23297Y6440D01*
X23296Y6454D01*
X23292Y6468D01*
X23285Y6480D01*
X23276Y6491D01*
X23265Y6500D01*
X23253Y6507D01*
X23239Y6511D01*
X23225Y6512D01*
D02*
G37*
G36*
X27800Y6352D02*
X27786Y6351D01*
X27772Y6347D01*
X27760Y6340D01*
X27749Y6331D01*
X27740Y6320D01*
X27733Y6308D01*
X27729Y6294D01*
X27728Y6280D01*
X27729Y6266D01*
X27733Y6252D01*
X27740Y6240D01*
X27749Y6229D01*
X27760Y6220D01*
X27772Y6213D01*
X27786Y6209D01*
X27800Y6208D01*
X27814Y6209D01*
X27828Y6213D01*
X27840Y6220D01*
X27851Y6229D01*
X27860Y6240D01*
X27867Y6252D01*
X27871Y6266D01*
X27872Y6280D01*
X27871Y6294D01*
X27867Y6308D01*
X27860Y6320D01*
X27851Y6331D01*
X27840Y6340D01*
X27828Y6347D01*
X27814Y6351D01*
X27800Y6352D01*
D02*
G37*
G36*
X27395D02*
X27381Y6351D01*
X27367Y6347D01*
X27355Y6340D01*
X27344Y6331D01*
X27335Y6320D01*
X27328Y6308D01*
X27324Y6294D01*
X27323Y6280D01*
X27324Y6266D01*
X27328Y6252D01*
X27335Y6240D01*
X27344Y6229D01*
X27355Y6220D01*
X27367Y6213D01*
X27381Y6209D01*
X27395Y6208D01*
X27409Y6209D01*
X27423Y6213D01*
X27435Y6220D01*
X27446Y6229D01*
X27455Y6240D01*
X27462Y6252D01*
X27466Y6266D01*
X27467Y6280D01*
X27466Y6294D01*
X27462Y6308D01*
X27455Y6320D01*
X27446Y6331D01*
X27435Y6340D01*
X27423Y6347D01*
X27409Y6351D01*
X27395Y6352D01*
D02*
G37*
G36*
X26705Y6208D02*
X26694Y6207D01*
X26683Y6203D01*
X26674Y6196D01*
X26667Y6187D01*
X26663Y6176D01*
X26662Y6165D01*
X26663Y6154D01*
X26667Y6143D01*
X26674Y6134D01*
X26683Y6127D01*
X26694Y6123D01*
X26705Y6122D01*
X26716Y6123D01*
X26727Y6127D01*
X26736Y6134D01*
X26743Y6143D01*
X26747Y6154D01*
X26748Y6165D01*
X26747Y6176D01*
X26743Y6187D01*
X26736Y6196D01*
X26727Y6203D01*
X26716Y6207D01*
X26705Y6208D01*
D02*
G37*
G36*
X26605D02*
X26594Y6207D01*
X26583Y6203D01*
X26574Y6196D01*
X26567Y6187D01*
X26563Y6176D01*
X26562Y6165D01*
X26563Y6154D01*
X26567Y6143D01*
X26574Y6134D01*
X26583Y6127D01*
X26594Y6123D01*
X26605Y6122D01*
X26616Y6123D01*
X26627Y6127D01*
X26636Y6134D01*
X26643Y6143D01*
X26647Y6154D01*
X26648Y6165D01*
X26647Y6176D01*
X26643Y6187D01*
X26636Y6196D01*
X26627Y6203D01*
X26616Y6207D01*
X26605Y6208D01*
D02*
G37*
G36*
X26505D02*
X26494Y6207D01*
X26483Y6203D01*
X26474Y6196D01*
X26467Y6187D01*
X26463Y6176D01*
X26462Y6165D01*
X26463Y6154D01*
X26467Y6143D01*
X26474Y6134D01*
X26483Y6127D01*
X26494Y6123D01*
X26505Y6122D01*
X26516Y6123D01*
X26527Y6127D01*
X26536Y6134D01*
X26543Y6143D01*
X26547Y6154D01*
X26548Y6165D01*
X26547Y6176D01*
X26543Y6187D01*
X26536Y6196D01*
X26527Y6203D01*
X26516Y6207D01*
X26505Y6208D01*
D02*
G37*
G36*
X26405D02*
X26394Y6207D01*
X26383Y6203D01*
X26374Y6196D01*
X26367Y6187D01*
X26363Y6176D01*
X26362Y6165D01*
X26363Y6154D01*
X26367Y6143D01*
X26374Y6134D01*
X26383Y6127D01*
X26394Y6123D01*
X26405Y6122D01*
X26416Y6123D01*
X26427Y6127D01*
X26436Y6134D01*
X26443Y6143D01*
X26447Y6154D01*
X26448Y6165D01*
X26447Y6176D01*
X26443Y6187D01*
X26436Y6196D01*
X26427Y6203D01*
X26416Y6207D01*
X26405Y6208D01*
D02*
G37*
G36*
X26305D02*
X26294Y6207D01*
X26283Y6203D01*
X26274Y6196D01*
X26267Y6187D01*
X26263Y6176D01*
X26262Y6165D01*
X26263Y6154D01*
X26267Y6143D01*
X26274Y6134D01*
X26283Y6127D01*
X26294Y6123D01*
X26305Y6122D01*
X26316Y6123D01*
X26327Y6127D01*
X26336Y6134D01*
X26343Y6143D01*
X26347Y6154D01*
X26348Y6165D01*
X26347Y6176D01*
X26343Y6187D01*
X26336Y6196D01*
X26327Y6203D01*
X26316Y6207D01*
X26305Y6208D01*
D02*
G37*
G36*
X26205D02*
X26194Y6207D01*
X26183Y6203D01*
X26174Y6196D01*
X26167Y6187D01*
X26163Y6176D01*
X26162Y6165D01*
X26163Y6154D01*
X26167Y6143D01*
X26174Y6134D01*
X26183Y6127D01*
X26194Y6123D01*
X26205Y6122D01*
X26216Y6123D01*
X26227Y6127D01*
X26236Y6134D01*
X26243Y6143D01*
X26247Y6154D01*
X26248Y6165D01*
X26247Y6176D01*
X26243Y6187D01*
X26236Y6196D01*
X26227Y6203D01*
X26216Y6207D01*
X26205Y6208D01*
D02*
G37*
G36*
X26105D02*
X26094Y6207D01*
X26083Y6203D01*
X26074Y6196D01*
X26067Y6187D01*
X26063Y6176D01*
X26062Y6165D01*
X26063Y6154D01*
X26067Y6143D01*
X26074Y6134D01*
X26083Y6127D01*
X26094Y6123D01*
X26105Y6122D01*
X26116Y6123D01*
X26127Y6127D01*
X26136Y6134D01*
X26143Y6143D01*
X26147Y6154D01*
X26148Y6165D01*
X26147Y6176D01*
X26143Y6187D01*
X26136Y6196D01*
X26127Y6203D01*
X26116Y6207D01*
X26105Y6208D01*
D02*
G37*
G36*
X26005D02*
X25994Y6207D01*
X25983Y6203D01*
X25974Y6196D01*
X25967Y6187D01*
X25963Y6176D01*
X25962Y6165D01*
X25963Y6154D01*
X25967Y6143D01*
X25974Y6134D01*
X25983Y6127D01*
X25994Y6123D01*
X26005Y6122D01*
X26016Y6123D01*
X26027Y6127D01*
X26036Y6134D01*
X26043Y6143D01*
X26047Y6154D01*
X26048Y6165D01*
X26047Y6176D01*
X26043Y6187D01*
X26036Y6196D01*
X26027Y6203D01*
X26016Y6207D01*
X26005Y6208D01*
D02*
G37*
G36*
X25905D02*
X25894Y6207D01*
X25883Y6203D01*
X25874Y6196D01*
X25867Y6187D01*
X25863Y6176D01*
X25862Y6165D01*
X25863Y6154D01*
X25867Y6143D01*
X25874Y6134D01*
X25883Y6127D01*
X25894Y6123D01*
X25905Y6122D01*
X25916Y6123D01*
X25927Y6127D01*
X25936Y6134D01*
X25943Y6143D01*
X25947Y6154D01*
X25948Y6165D01*
X25947Y6176D01*
X25943Y6187D01*
X25936Y6196D01*
X25927Y6203D01*
X25916Y6207D01*
X25905Y6208D01*
D02*
G37*
G36*
X25805D02*
X25794Y6207D01*
X25783Y6203D01*
X25774Y6196D01*
X25767Y6187D01*
X25763Y6176D01*
X25762Y6165D01*
X25763Y6154D01*
X25767Y6143D01*
X25774Y6134D01*
X25783Y6127D01*
X25794Y6123D01*
X25805Y6122D01*
X25816Y6123D01*
X25827Y6127D01*
X25836Y6134D01*
X25843Y6143D01*
X25847Y6154D01*
X25848Y6165D01*
X25847Y6176D01*
X25843Y6187D01*
X25836Y6196D01*
X25827Y6203D01*
X25816Y6207D01*
X25805Y6208D01*
D02*
G37*
G36*
X25705D02*
X25694Y6207D01*
X25683Y6203D01*
X25674Y6196D01*
X25667Y6187D01*
X25663Y6176D01*
X25662Y6165D01*
X25663Y6154D01*
X25667Y6143D01*
X25674Y6134D01*
X25683Y6127D01*
X25694Y6123D01*
X25705Y6122D01*
X25716Y6123D01*
X25727Y6127D01*
X25736Y6134D01*
X25743Y6143D01*
X25747Y6154D01*
X25748Y6165D01*
X25747Y6176D01*
X25743Y6187D01*
X25736Y6196D01*
X25727Y6203D01*
X25716Y6207D01*
X25705Y6208D01*
D02*
G37*
G36*
X25605D02*
X25594Y6207D01*
X25583Y6203D01*
X25574Y6196D01*
X25567Y6187D01*
X25563Y6176D01*
X25562Y6165D01*
X25563Y6154D01*
X25567Y6143D01*
X25574Y6134D01*
X25583Y6127D01*
X25594Y6123D01*
X25605Y6122D01*
X25616Y6123D01*
X25627Y6127D01*
X25636Y6134D01*
X25643Y6143D01*
X25647Y6154D01*
X25648Y6165D01*
X25647Y6176D01*
X25643Y6187D01*
X25636Y6196D01*
X25627Y6203D01*
X25616Y6207D01*
X25605Y6208D01*
D02*
G37*
G36*
X25505D02*
X25494Y6207D01*
X25483Y6203D01*
X25474Y6196D01*
X25467Y6187D01*
X25463Y6176D01*
X25462Y6165D01*
X25463Y6154D01*
X25467Y6143D01*
X25474Y6134D01*
X25483Y6127D01*
X25494Y6123D01*
X25505Y6122D01*
X25516Y6123D01*
X25527Y6127D01*
X25536Y6134D01*
X25543Y6143D01*
X25547Y6154D01*
X25548Y6165D01*
X25547Y6176D01*
X25543Y6187D01*
X25536Y6196D01*
X25527Y6203D01*
X25516Y6207D01*
X25505Y6208D01*
D02*
G37*
G36*
X25405D02*
X25394Y6207D01*
X25383Y6203D01*
X25374Y6196D01*
X25367Y6187D01*
X25363Y6176D01*
X25362Y6165D01*
X25363Y6154D01*
X25367Y6143D01*
X25374Y6134D01*
X25383Y6127D01*
X25394Y6123D01*
X25405Y6122D01*
X25416Y6123D01*
X25427Y6127D01*
X25436Y6134D01*
X25443Y6143D01*
X25447Y6154D01*
X25448Y6165D01*
X25447Y6176D01*
X25443Y6187D01*
X25436Y6196D01*
X25427Y6203D01*
X25416Y6207D01*
X25405Y6208D01*
D02*
G37*
G36*
X25305D02*
X25294Y6207D01*
X25283Y6203D01*
X25274Y6196D01*
X25267Y6187D01*
X25263Y6176D01*
X25262Y6165D01*
X25263Y6154D01*
X25267Y6143D01*
X25274Y6134D01*
X25283Y6127D01*
X25294Y6123D01*
X25305Y6122D01*
X25316Y6123D01*
X25327Y6127D01*
X25336Y6134D01*
X25343Y6143D01*
X25347Y6154D01*
X25348Y6165D01*
X25347Y6176D01*
X25343Y6187D01*
X25336Y6196D01*
X25327Y6203D01*
X25316Y6207D01*
X25305Y6208D01*
D02*
G37*
G36*
X25205D02*
X25194Y6207D01*
X25183Y6203D01*
X25174Y6196D01*
X25167Y6187D01*
X25163Y6176D01*
X25162Y6165D01*
X25163Y6154D01*
X25167Y6143D01*
X25174Y6134D01*
X25183Y6127D01*
X25194Y6123D01*
X25205Y6122D01*
X25216Y6123D01*
X25227Y6127D01*
X25236Y6134D01*
X25243Y6143D01*
X25247Y6154D01*
X25248Y6165D01*
X25247Y6176D01*
X25243Y6187D01*
X25236Y6196D01*
X25227Y6203D01*
X25216Y6207D01*
X25205Y6208D01*
D02*
G37*
G36*
X27795Y5972D02*
X27788Y5971D01*
X27781Y5969D01*
X27777Y5965D01*
X27028D01*
X27024Y5969D01*
X27017Y5971D01*
X27010Y5972D01*
X27003Y5971D01*
X26996Y5969D01*
X26991Y5964D01*
X26986Y5959D01*
X26984Y5952D01*
X26983Y5945D01*
X26984Y5938D01*
X26986Y5931D01*
X26991Y5926D01*
X26996Y5921D01*
X27003Y5919D01*
X27010Y5918D01*
X27017Y5919D01*
X27024Y5921D01*
X27028Y5925D01*
X27777D01*
X27781Y5921D01*
X27788Y5919D01*
X27795Y5918D01*
X27802Y5919D01*
X27809Y5921D01*
X27814Y5926D01*
X27819Y5931D01*
X27821Y5938D01*
X27822Y5945D01*
X27821Y5952D01*
X27819Y5959D01*
X27814Y5964D01*
X27809Y5969D01*
X27802Y5971D01*
X27795Y5972D01*
D02*
G37*
G36*
X24591Y6008D02*
X24549D01*
X24527Y5986D01*
Y5944D01*
X24549Y5922D01*
X24591D01*
X24613Y5944D01*
Y5986D01*
X24591Y6008D01*
D02*
G37*
G36*
X26705Y6008D02*
X26694Y6007D01*
X26683Y6003D01*
X26674Y5996D01*
X26667Y5987D01*
X26663Y5976D01*
X26662Y5965D01*
X26663Y5954D01*
X26667Y5943D01*
X26674Y5934D01*
X26683Y5927D01*
X26694Y5923D01*
X26705Y5922D01*
X26716Y5923D01*
X26727Y5927D01*
X26736Y5934D01*
X26743Y5943D01*
X26747Y5954D01*
X26748Y5965D01*
X26747Y5976D01*
X26743Y5987D01*
X26736Y5996D01*
X26727Y6003D01*
X26716Y6007D01*
X26705Y6008D01*
D02*
G37*
G36*
X26605D02*
X26594Y6007D01*
X26583Y6003D01*
X26574Y5996D01*
X26567Y5987D01*
X26563Y5976D01*
X26562Y5965D01*
X26563Y5954D01*
X26567Y5943D01*
X26574Y5934D01*
X26583Y5927D01*
X26594Y5923D01*
X26605Y5922D01*
X26616Y5923D01*
X26627Y5927D01*
X26636Y5934D01*
X26643Y5943D01*
X26647Y5954D01*
X26648Y5965D01*
X26647Y5976D01*
X26643Y5987D01*
X26636Y5996D01*
X26627Y6003D01*
X26616Y6007D01*
X26605Y6008D01*
D02*
G37*
G36*
X26505D02*
X26494Y6007D01*
X26483Y6003D01*
X26474Y5996D01*
X26467Y5987D01*
X26463Y5976D01*
X26462Y5965D01*
X26463Y5954D01*
X26467Y5943D01*
X26474Y5934D01*
X26483Y5927D01*
X26494Y5923D01*
X26505Y5922D01*
X26516Y5923D01*
X26527Y5927D01*
X26536Y5934D01*
X26543Y5943D01*
X26547Y5954D01*
X26548Y5965D01*
X26547Y5976D01*
X26543Y5987D01*
X26536Y5996D01*
X26527Y6003D01*
X26516Y6007D01*
X26505Y6008D01*
D02*
G37*
G36*
X26405D02*
X26394Y6007D01*
X26383Y6003D01*
X26374Y5996D01*
X26367Y5987D01*
X26363Y5976D01*
X26362Y5965D01*
X26363Y5954D01*
X26367Y5943D01*
X26374Y5934D01*
X26383Y5927D01*
X26394Y5923D01*
X26405Y5922D01*
X26416Y5923D01*
X26427Y5927D01*
X26436Y5934D01*
X26443Y5943D01*
X26447Y5954D01*
X26448Y5965D01*
X26447Y5976D01*
X26443Y5987D01*
X26436Y5996D01*
X26427Y6003D01*
X26416Y6007D01*
X26405Y6008D01*
D02*
G37*
G36*
X26305D02*
X26294Y6007D01*
X26283Y6003D01*
X26274Y5996D01*
X26267Y5987D01*
X26263Y5976D01*
X26262Y5965D01*
X26263Y5954D01*
X26267Y5943D01*
X26274Y5934D01*
X26283Y5927D01*
X26294Y5923D01*
X26305Y5922D01*
X26316Y5923D01*
X26327Y5927D01*
X26336Y5934D01*
X26343Y5943D01*
X26347Y5954D01*
X26348Y5965D01*
X26347Y5976D01*
X26343Y5987D01*
X26336Y5996D01*
X26327Y6003D01*
X26316Y6007D01*
X26305Y6008D01*
D02*
G37*
G36*
X26205D02*
X26194Y6007D01*
X26183Y6003D01*
X26174Y5996D01*
X26167Y5987D01*
X26163Y5976D01*
X26162Y5965D01*
X26163Y5954D01*
X26167Y5943D01*
X26174Y5934D01*
X26183Y5927D01*
X26194Y5923D01*
X26205Y5922D01*
X26216Y5923D01*
X26227Y5927D01*
X26236Y5934D01*
X26243Y5943D01*
X26247Y5954D01*
X26248Y5965D01*
X26247Y5976D01*
X26243Y5987D01*
X26236Y5996D01*
X26227Y6003D01*
X26216Y6007D01*
X26205Y6008D01*
D02*
G37*
G36*
X26105D02*
X26094Y6007D01*
X26083Y6003D01*
X26074Y5996D01*
X26067Y5987D01*
X26063Y5976D01*
X26062Y5965D01*
X26063Y5954D01*
X26067Y5943D01*
X26074Y5934D01*
X26083Y5927D01*
X26094Y5923D01*
X26105Y5922D01*
X26116Y5923D01*
X26127Y5927D01*
X26136Y5934D01*
X26143Y5943D01*
X26147Y5954D01*
X26148Y5965D01*
X26147Y5976D01*
X26143Y5987D01*
X26136Y5996D01*
X26127Y6003D01*
X26116Y6007D01*
X26105Y6008D01*
D02*
G37*
G36*
X26005D02*
X25994Y6007D01*
X25983Y6003D01*
X25974Y5996D01*
X25967Y5987D01*
X25963Y5976D01*
X25962Y5965D01*
X25963Y5954D01*
X25967Y5943D01*
X25974Y5934D01*
X25983Y5927D01*
X25994Y5923D01*
X26005Y5922D01*
X26016Y5923D01*
X26027Y5927D01*
X26036Y5934D01*
X26043Y5943D01*
X26047Y5954D01*
X26048Y5965D01*
X26047Y5976D01*
X26043Y5987D01*
X26036Y5996D01*
X26027Y6003D01*
X26016Y6007D01*
X26005Y6008D01*
D02*
G37*
G36*
X25905D02*
X25894Y6007D01*
X25883Y6003D01*
X25874Y5996D01*
X25867Y5987D01*
X25863Y5976D01*
X25862Y5965D01*
X25863Y5954D01*
X25867Y5943D01*
X25874Y5934D01*
X25883Y5927D01*
X25894Y5923D01*
X25905Y5922D01*
X25916Y5923D01*
X25927Y5927D01*
X25936Y5934D01*
X25943Y5943D01*
X25947Y5954D01*
X25948Y5965D01*
X25947Y5976D01*
X25943Y5987D01*
X25936Y5996D01*
X25927Y6003D01*
X25916Y6007D01*
X25905Y6008D01*
D02*
G37*
G36*
X25805D02*
X25794Y6007D01*
X25783Y6003D01*
X25774Y5996D01*
X25767Y5987D01*
X25763Y5976D01*
X25762Y5965D01*
X25763Y5954D01*
X25767Y5943D01*
X25774Y5934D01*
X25783Y5927D01*
X25794Y5923D01*
X25805Y5922D01*
X25816Y5923D01*
X25827Y5927D01*
X25836Y5934D01*
X25843Y5943D01*
X25847Y5954D01*
X25848Y5965D01*
X25847Y5976D01*
X25843Y5987D01*
X25836Y5996D01*
X25827Y6003D01*
X25816Y6007D01*
X25805Y6008D01*
D02*
G37*
G36*
X25705D02*
X25694Y6007D01*
X25683Y6003D01*
X25674Y5996D01*
X25667Y5987D01*
X25663Y5976D01*
X25662Y5965D01*
X25663Y5954D01*
X25667Y5943D01*
X25674Y5934D01*
X25683Y5927D01*
X25694Y5923D01*
X25705Y5922D01*
X25716Y5923D01*
X25727Y5927D01*
X25736Y5934D01*
X25743Y5943D01*
X25747Y5954D01*
X25748Y5965D01*
X25747Y5976D01*
X25743Y5987D01*
X25736Y5996D01*
X25727Y6003D01*
X25716Y6007D01*
X25705Y6008D01*
D02*
G37*
G36*
X25605D02*
X25594Y6007D01*
X25583Y6003D01*
X25574Y5996D01*
X25567Y5987D01*
X25563Y5976D01*
X25562Y5965D01*
X25563Y5954D01*
X25567Y5943D01*
X25574Y5934D01*
X25583Y5927D01*
X25594Y5923D01*
X25605Y5922D01*
X25616Y5923D01*
X25627Y5927D01*
X25636Y5934D01*
X25643Y5943D01*
X25647Y5954D01*
X25648Y5965D01*
X25647Y5976D01*
X25643Y5987D01*
X25636Y5996D01*
X25627Y6003D01*
X25616Y6007D01*
X25605Y6008D01*
D02*
G37*
G36*
X25505D02*
X25494Y6007D01*
X25483Y6003D01*
X25474Y5996D01*
X25467Y5987D01*
X25463Y5976D01*
X25462Y5965D01*
X25463Y5954D01*
X25467Y5943D01*
X25474Y5934D01*
X25483Y5927D01*
X25494Y5923D01*
X25505Y5922D01*
X25516Y5923D01*
X25527Y5927D01*
X25536Y5934D01*
X25543Y5943D01*
X25547Y5954D01*
X25548Y5965D01*
X25547Y5976D01*
X25543Y5987D01*
X25536Y5996D01*
X25527Y6003D01*
X25516Y6007D01*
X25505Y6008D01*
D02*
G37*
G36*
X25405D02*
X25394Y6007D01*
X25383Y6003D01*
X25374Y5996D01*
X25367Y5987D01*
X25363Y5976D01*
X25362Y5965D01*
X25363Y5954D01*
X25367Y5943D01*
X25374Y5934D01*
X25383Y5927D01*
X25394Y5923D01*
X25405Y5922D01*
X25416Y5923D01*
X25427Y5927D01*
X25436Y5934D01*
X25443Y5943D01*
X25447Y5954D01*
X25448Y5965D01*
X25447Y5976D01*
X25443Y5987D01*
X25436Y5996D01*
X25427Y6003D01*
X25416Y6007D01*
X25405Y6008D01*
D02*
G37*
G36*
X25305D02*
X25294Y6007D01*
X25283Y6003D01*
X25274Y5996D01*
X25267Y5987D01*
X25263Y5976D01*
X25262Y5965D01*
X25263Y5954D01*
X25267Y5943D01*
X25274Y5934D01*
X25283Y5927D01*
X25294Y5923D01*
X25305Y5922D01*
X25316Y5923D01*
X25327Y5927D01*
X25336Y5934D01*
X25343Y5943D01*
X25347Y5954D01*
X25348Y5965D01*
X25347Y5976D01*
X25343Y5987D01*
X25336Y5996D01*
X25327Y6003D01*
X25316Y6007D01*
X25305Y6008D01*
D02*
G37*
G36*
X25205D02*
X25194Y6007D01*
X25183Y6003D01*
X25174Y5996D01*
X25167Y5987D01*
X25163Y5976D01*
X25162Y5965D01*
X25163Y5954D01*
X25167Y5943D01*
X25174Y5934D01*
X25183Y5927D01*
X25194Y5923D01*
X25205Y5922D01*
X25216Y5923D01*
X25227Y5927D01*
X25236Y5934D01*
X25243Y5943D01*
X25247Y5954D01*
X25248Y5965D01*
X25247Y5976D01*
X25243Y5987D01*
X25236Y5996D01*
X25227Y6003D01*
X25216Y6007D01*
X25205Y6008D01*
D02*
G37*
G36*
X24470D02*
X24459Y6007D01*
X24448Y6003D01*
X24439Y5996D01*
X24432Y5987D01*
X24428Y5976D01*
X24427Y5965D01*
X24428Y5954D01*
X24432Y5943D01*
X24439Y5934D01*
X24448Y5927D01*
X24459Y5923D01*
X24470Y5922D01*
X24481Y5923D01*
X24492Y5927D01*
X24501Y5934D01*
X24508Y5943D01*
X24512Y5954D01*
X24513Y5965D01*
X24512Y5976D01*
X24508Y5987D01*
X24501Y5996D01*
X24492Y6003D01*
X24481Y6007D01*
X24470Y6008D01*
D02*
G37*
G36*
X24370D02*
X24359Y6007D01*
X24348Y6003D01*
X24339Y5996D01*
X24332Y5987D01*
X24328Y5976D01*
X24327Y5965D01*
X24328Y5954D01*
X24332Y5943D01*
X24339Y5934D01*
X24348Y5927D01*
X24359Y5923D01*
X24370Y5922D01*
X24381Y5923D01*
X24392Y5927D01*
X24401Y5934D01*
X24408Y5943D01*
X24412Y5954D01*
X24413Y5965D01*
X24412Y5976D01*
X24408Y5987D01*
X24401Y5996D01*
X24392Y6003D01*
X24381Y6007D01*
X24370Y6008D01*
D02*
G37*
G36*
X24270D02*
X24259Y6007D01*
X24248Y6003D01*
X24239Y5996D01*
X24232Y5987D01*
X24228Y5976D01*
X24227Y5965D01*
X24228Y5954D01*
X24232Y5943D01*
X24239Y5934D01*
X24248Y5927D01*
X24259Y5923D01*
X24270Y5922D01*
X24281Y5923D01*
X24292Y5927D01*
X24301Y5934D01*
X24308Y5943D01*
X24312Y5954D01*
X24313Y5965D01*
X24312Y5976D01*
X24308Y5987D01*
X24301Y5996D01*
X24292Y6003D01*
X24281Y6007D01*
X24270Y6008D01*
D02*
G37*
G36*
X26805D02*
X26794Y6007D01*
X26783Y6003D01*
X26774Y5996D01*
X26767Y5987D01*
X26763Y5976D01*
X26762Y5965D01*
X26763Y5954D01*
X26767Y5943D01*
X26774Y5934D01*
X26783Y5927D01*
X26785Y5927D01*
Y5753D01*
X26781Y5749D01*
X26779Y5742D01*
X26778Y5735D01*
X26779Y5728D01*
X26781Y5721D01*
X26786Y5716D01*
X26791Y5711D01*
X26798Y5709D01*
X26805Y5708D01*
X26812Y5709D01*
X26819Y5711D01*
X26824Y5716D01*
X26829Y5721D01*
X26831Y5728D01*
X26832Y5735D01*
X26831Y5742D01*
X26829Y5749D01*
X26825Y5753D01*
Y5927D01*
X26827Y5927D01*
X26836Y5934D01*
X26843Y5943D01*
X26847Y5954D01*
X26848Y5965D01*
X26847Y5976D01*
X26843Y5987D01*
X26836Y5996D01*
X26827Y6003D01*
X26816Y6007D01*
X26805Y6008D01*
D02*
G37*
G36*
X23225Y5612D02*
X23211Y5611D01*
X23197Y5607D01*
X23185Y5600D01*
X23174Y5591D01*
X23165Y5580D01*
X23158Y5568D01*
X23154Y5554D01*
X23153Y5540D01*
X23154Y5526D01*
X23158Y5512D01*
X23165Y5500D01*
X23174Y5489D01*
X23185Y5480D01*
X23197Y5473D01*
X23211Y5469D01*
X23225Y5468D01*
X23239Y5469D01*
X23253Y5473D01*
X23265Y5480D01*
X23276Y5489D01*
X23285Y5500D01*
X23292Y5512D01*
X23296Y5526D01*
X23297Y5540D01*
X23296Y5554D01*
X23292Y5568D01*
X23285Y5580D01*
X23276Y5591D01*
X23265Y5600D01*
X23253Y5607D01*
X23239Y5611D01*
X23225Y5612D01*
D02*
G37*
G36*
X27470Y5687D02*
X27463Y5686D01*
X27456Y5684D01*
X27451Y5679D01*
X27446Y5674D01*
X27444Y5667D01*
X27443Y5660D01*
X27444Y5653D01*
X27446Y5646D01*
X27451Y5641D01*
X27456Y5636D01*
X27463Y5634D01*
X27468Y5633D01*
X27550Y5552D01*
Y5508D01*
X27546Y5504D01*
X27544Y5497D01*
X27543Y5490D01*
X27544Y5483D01*
X27546Y5476D01*
X27551Y5471D01*
X27556Y5466D01*
X27563Y5464D01*
X27570Y5463D01*
X27577Y5464D01*
X27584Y5466D01*
X27589Y5471D01*
X27594Y5476D01*
X27596Y5483D01*
X27597Y5490D01*
X27596Y5497D01*
X27594Y5504D01*
X27590Y5508D01*
Y5560D01*
X27590Y5560D01*
X27589Y5568D01*
X27584Y5574D01*
X27584Y5574D01*
X27497Y5662D01*
X27496Y5667D01*
X27494Y5674D01*
X27489Y5679D01*
X27484Y5684D01*
X27477Y5686D01*
X27470Y5687D01*
D02*
G37*
G36*
X27800Y5452D02*
X27786Y5451D01*
X27772Y5447D01*
X27760Y5440D01*
X27749Y5431D01*
X27740Y5420D01*
X27733Y5408D01*
X27729Y5394D01*
X27728Y5380D01*
X27729Y5366D01*
X27733Y5352D01*
X27740Y5340D01*
X27749Y5329D01*
X27760Y5320D01*
X27772Y5313D01*
X27786Y5309D01*
X27800Y5308D01*
X27814Y5309D01*
X27828Y5313D01*
X27840Y5320D01*
X27851Y5329D01*
X27860Y5340D01*
X27867Y5352D01*
X27871Y5366D01*
X27872Y5380D01*
X27871Y5394D01*
X27867Y5408D01*
X27860Y5420D01*
X27851Y5431D01*
X27840Y5440D01*
X27828Y5447D01*
X27814Y5451D01*
X27800Y5452D01*
D02*
G37*
G36*
X27395D02*
X27381Y5451D01*
X27367Y5447D01*
X27355Y5440D01*
X27344Y5431D01*
X27335Y5420D01*
X27328Y5408D01*
X27324Y5394D01*
X27323Y5380D01*
X27324Y5366D01*
X27328Y5352D01*
X27335Y5340D01*
X27344Y5329D01*
X27355Y5320D01*
X27367Y5313D01*
X27381Y5309D01*
X27395Y5308D01*
X27409Y5309D01*
X27423Y5313D01*
X27435Y5320D01*
X27446Y5329D01*
X27455Y5340D01*
X27462Y5352D01*
X27466Y5366D01*
X27467Y5380D01*
X27466Y5394D01*
X27462Y5408D01*
X27455Y5420D01*
X27446Y5431D01*
X27435Y5440D01*
X27423Y5447D01*
X27409Y5451D01*
X27395Y5452D01*
D02*
G37*
G36*
X26560Y5167D02*
X26553Y5166D01*
X26546Y5164D01*
X26542Y5160D01*
X26423D01*
X26419Y5164D01*
X26412Y5166D01*
X26405Y5167D01*
X26398Y5166D01*
X26391Y5164D01*
X26386Y5159D01*
X26381Y5154D01*
X26379Y5147D01*
X26378Y5140D01*
X26379Y5133D01*
X26381Y5126D01*
X26386Y5121D01*
X26391Y5116D01*
X26398Y5114D01*
X26402Y5113D01*
X26403Y5113D01*
X26403Y5108D01*
X26402Y5108D01*
X26394Y5107D01*
X26383Y5103D01*
X26374Y5096D01*
X26367Y5087D01*
X26363Y5076D01*
X26362Y5065D01*
X26363Y5054D01*
X26367Y5043D01*
X26374Y5034D01*
X26383Y5027D01*
X26394Y5023D01*
X26405Y5022D01*
X26416Y5023D01*
X26427Y5027D01*
X26436Y5034D01*
X26443Y5043D01*
X26447Y5054D01*
X26448Y5065D01*
X26447Y5076D01*
X26443Y5087D01*
X26436Y5096D01*
X26427Y5103D01*
X26416Y5107D01*
X26408Y5108D01*
X26407Y5108D01*
X26407Y5113D01*
X26408Y5113D01*
X26412Y5114D01*
X26419Y5116D01*
X26423Y5120D01*
X26542D01*
X26546Y5116D01*
X26553Y5114D01*
X26560Y5113D01*
X26567Y5114D01*
X26574Y5116D01*
X26579Y5121D01*
X26584Y5126D01*
X26586Y5133D01*
X26587Y5140D01*
X26586Y5147D01*
X26584Y5154D01*
X26579Y5159D01*
X26574Y5164D01*
X26567Y5166D01*
X26560Y5167D01*
D02*
G37*
G36*
X24890Y5900D02*
X24035D01*
Y5140D01*
X24890D01*
Y5900D01*
D02*
G37*
G36*
X23750Y5132D02*
X23730D01*
X23718Y5131D01*
X23706Y5126D01*
X23696Y5119D01*
X23689Y5109D01*
X23684Y5097D01*
X23683Y5085D01*
X23684Y5073D01*
X23689Y5061D01*
X23696Y5051D01*
X23706Y5044D01*
X23718Y5039D01*
X23730Y5038D01*
X23750D01*
X23762Y5039D01*
X23774Y5044D01*
X23784Y5051D01*
X23791Y5061D01*
X23796Y5073D01*
X23797Y5085D01*
X23796Y5097D01*
X23791Y5109D01*
X23784Y5119D01*
X23774Y5126D01*
X23762Y5131D01*
X23750Y5132D01*
D02*
G37*
G36*
X26805Y5108D02*
X26794Y5107D01*
X26783Y5103D01*
X26774Y5096D01*
X26767Y5087D01*
X26763Y5076D01*
X26762Y5065D01*
X26763Y5054D01*
X26767Y5043D01*
X26774Y5034D01*
X26783Y5027D01*
X26794Y5023D01*
X26805Y5022D01*
X26816Y5023D01*
X26827Y5027D01*
X26836Y5034D01*
X26843Y5043D01*
X26847Y5054D01*
X26848Y5065D01*
X26847Y5076D01*
X26843Y5087D01*
X26836Y5096D01*
X26827Y5103D01*
X26816Y5107D01*
X26805Y5108D01*
D02*
G37*
G36*
X26705D02*
X26694Y5107D01*
X26683Y5103D01*
X26674Y5096D01*
X26667Y5087D01*
X26663Y5076D01*
X26662Y5065D01*
X26663Y5054D01*
X26667Y5043D01*
X26674Y5034D01*
X26683Y5027D01*
X26694Y5023D01*
X26705Y5022D01*
X26716Y5023D01*
X26727Y5027D01*
X26736Y5034D01*
X26743Y5043D01*
X26747Y5054D01*
X26748Y5065D01*
X26747Y5076D01*
X26743Y5087D01*
X26736Y5096D01*
X26727Y5103D01*
X26716Y5107D01*
X26705Y5108D01*
D02*
G37*
G36*
X26605D02*
X26594Y5107D01*
X26583Y5103D01*
X26574Y5096D01*
X26567Y5087D01*
X26563Y5076D01*
X26562Y5065D01*
X26563Y5054D01*
X26567Y5043D01*
X26574Y5034D01*
X26583Y5027D01*
X26594Y5023D01*
X26605Y5022D01*
X26616Y5023D01*
X26627Y5027D01*
X26636Y5034D01*
X26643Y5043D01*
X26647Y5054D01*
X26648Y5065D01*
X26647Y5076D01*
X26643Y5087D01*
X26636Y5096D01*
X26627Y5103D01*
X26616Y5107D01*
X26605Y5108D01*
D02*
G37*
G36*
X26505D02*
X26494Y5107D01*
X26483Y5103D01*
X26474Y5096D01*
X26467Y5087D01*
X26463Y5076D01*
X26462Y5065D01*
X26463Y5054D01*
X26467Y5043D01*
X26474Y5034D01*
X26483Y5027D01*
X26494Y5023D01*
X26505Y5022D01*
X26516Y5023D01*
X26527Y5027D01*
X26536Y5034D01*
X26543Y5043D01*
X26547Y5054D01*
X26548Y5065D01*
X26547Y5076D01*
X26543Y5087D01*
X26536Y5096D01*
X26527Y5103D01*
X26516Y5107D01*
X26505Y5108D01*
D02*
G37*
G36*
X26305D02*
X26294Y5107D01*
X26283Y5103D01*
X26274Y5096D01*
X26267Y5087D01*
X26263Y5076D01*
X26262Y5065D01*
X26263Y5054D01*
X26267Y5043D01*
X26274Y5034D01*
X26283Y5027D01*
X26294Y5023D01*
X26305Y5022D01*
X26316Y5023D01*
X26327Y5027D01*
X26336Y5034D01*
X26343Y5043D01*
X26347Y5054D01*
X26348Y5065D01*
X26347Y5076D01*
X26343Y5087D01*
X26336Y5096D01*
X26327Y5103D01*
X26316Y5107D01*
X26305Y5108D01*
D02*
G37*
G36*
X26205D02*
X26194Y5107D01*
X26183Y5103D01*
X26174Y5096D01*
X26167Y5087D01*
X26163Y5076D01*
X26162Y5065D01*
X26163Y5054D01*
X26167Y5043D01*
X26174Y5034D01*
X26183Y5027D01*
X26194Y5023D01*
X26205Y5022D01*
X26216Y5023D01*
X26227Y5027D01*
X26236Y5034D01*
X26243Y5043D01*
X26247Y5054D01*
X26248Y5065D01*
X26247Y5076D01*
X26243Y5087D01*
X26236Y5096D01*
X26227Y5103D01*
X26216Y5107D01*
X26205Y5108D01*
D02*
G37*
G36*
X26105D02*
X26094Y5107D01*
X26083Y5103D01*
X26074Y5096D01*
X26067Y5087D01*
X26063Y5076D01*
X26062Y5065D01*
X26063Y5054D01*
X26067Y5043D01*
X26074Y5034D01*
X26083Y5027D01*
X26094Y5023D01*
X26105Y5022D01*
X26116Y5023D01*
X26127Y5027D01*
X26136Y5034D01*
X26143Y5043D01*
X26147Y5054D01*
X26148Y5065D01*
X26147Y5076D01*
X26143Y5087D01*
X26136Y5096D01*
X26127Y5103D01*
X26116Y5107D01*
X26105Y5108D01*
D02*
G37*
G36*
X26005D02*
X25994Y5107D01*
X25983Y5103D01*
X25974Y5096D01*
X25967Y5087D01*
X25963Y5076D01*
X25962Y5065D01*
X25963Y5054D01*
X25967Y5043D01*
X25974Y5034D01*
X25983Y5027D01*
X25994Y5023D01*
X26005Y5022D01*
X26016Y5023D01*
X26027Y5027D01*
X26036Y5034D01*
X26043Y5043D01*
X26047Y5054D01*
X26048Y5065D01*
X26047Y5076D01*
X26043Y5087D01*
X26036Y5096D01*
X26027Y5103D01*
X26016Y5107D01*
X26005Y5108D01*
D02*
G37*
G36*
X25905D02*
X25894Y5107D01*
X25883Y5103D01*
X25874Y5096D01*
X25867Y5087D01*
X25863Y5076D01*
X25862Y5065D01*
X25863Y5054D01*
X25867Y5043D01*
X25874Y5034D01*
X25883Y5027D01*
X25894Y5023D01*
X25905Y5022D01*
X25916Y5023D01*
X25927Y5027D01*
X25936Y5034D01*
X25943Y5043D01*
X25947Y5054D01*
X25948Y5065D01*
X25947Y5076D01*
X25943Y5087D01*
X25936Y5096D01*
X25927Y5103D01*
X25916Y5107D01*
X25905Y5108D01*
D02*
G37*
G36*
X25805D02*
X25794Y5107D01*
X25783Y5103D01*
X25774Y5096D01*
X25767Y5087D01*
X25763Y5076D01*
X25762Y5065D01*
X25763Y5054D01*
X25767Y5043D01*
X25774Y5034D01*
X25783Y5027D01*
X25794Y5023D01*
X25805Y5022D01*
X25816Y5023D01*
X25827Y5027D01*
X25836Y5034D01*
X25843Y5043D01*
X25847Y5054D01*
X25848Y5065D01*
X25847Y5076D01*
X25843Y5087D01*
X25836Y5096D01*
X25827Y5103D01*
X25816Y5107D01*
X25805Y5108D01*
D02*
G37*
G36*
X25705D02*
X25694Y5107D01*
X25683Y5103D01*
X25674Y5096D01*
X25667Y5087D01*
X25663Y5076D01*
X25662Y5065D01*
X25663Y5054D01*
X25667Y5043D01*
X25674Y5034D01*
X25683Y5027D01*
X25694Y5023D01*
X25705Y5022D01*
X25716Y5023D01*
X25727Y5027D01*
X25736Y5034D01*
X25743Y5043D01*
X25747Y5054D01*
X25748Y5065D01*
X25747Y5076D01*
X25743Y5087D01*
X25736Y5096D01*
X25727Y5103D01*
X25716Y5107D01*
X25705Y5108D01*
D02*
G37*
G36*
X25605D02*
X25594Y5107D01*
X25583Y5103D01*
X25574Y5096D01*
X25567Y5087D01*
X25563Y5076D01*
X25562Y5065D01*
X25563Y5054D01*
X25567Y5043D01*
X25574Y5034D01*
X25583Y5027D01*
X25594Y5023D01*
X25605Y5022D01*
X25616Y5023D01*
X25627Y5027D01*
X25636Y5034D01*
X25643Y5043D01*
X25647Y5054D01*
X25648Y5065D01*
X25647Y5076D01*
X25643Y5087D01*
X25636Y5096D01*
X25627Y5103D01*
X25616Y5107D01*
X25605Y5108D01*
D02*
G37*
G36*
X25505D02*
X25494Y5107D01*
X25483Y5103D01*
X25474Y5096D01*
X25467Y5087D01*
X25463Y5076D01*
X25462Y5065D01*
X25463Y5054D01*
X25467Y5043D01*
X25474Y5034D01*
X25483Y5027D01*
X25494Y5023D01*
X25505Y5022D01*
X25516Y5023D01*
X25527Y5027D01*
X25536Y5034D01*
X25543Y5043D01*
X25547Y5054D01*
X25548Y5065D01*
X25547Y5076D01*
X25543Y5087D01*
X25536Y5096D01*
X25527Y5103D01*
X25516Y5107D01*
X25505Y5108D01*
D02*
G37*
G36*
X25405D02*
X25394Y5107D01*
X25383Y5103D01*
X25374Y5096D01*
X25367Y5087D01*
X25363Y5076D01*
X25362Y5065D01*
X25363Y5054D01*
X25367Y5043D01*
X25374Y5034D01*
X25383Y5027D01*
X25394Y5023D01*
X25405Y5022D01*
X25416Y5023D01*
X25427Y5027D01*
X25436Y5034D01*
X25443Y5043D01*
X25447Y5054D01*
X25448Y5065D01*
X25447Y5076D01*
X25443Y5087D01*
X25436Y5096D01*
X25427Y5103D01*
X25416Y5107D01*
X25405Y5108D01*
D02*
G37*
G36*
X25305D02*
X25294Y5107D01*
X25283Y5103D01*
X25274Y5096D01*
X25267Y5087D01*
X25263Y5076D01*
X25262Y5065D01*
X25263Y5054D01*
X25267Y5043D01*
X25274Y5034D01*
X25283Y5027D01*
X25294Y5023D01*
X25305Y5022D01*
X25316Y5023D01*
X25327Y5027D01*
X25336Y5034D01*
X25343Y5043D01*
X25347Y5054D01*
X25348Y5065D01*
X25347Y5076D01*
X25343Y5087D01*
X25336Y5096D01*
X25327Y5103D01*
X25316Y5107D01*
X25305Y5108D01*
D02*
G37*
G36*
X25205D02*
X25194Y5107D01*
X25183Y5103D01*
X25174Y5096D01*
X25167Y5087D01*
X25163Y5076D01*
X25162Y5065D01*
X25163Y5054D01*
X25167Y5043D01*
X25174Y5034D01*
X25183Y5027D01*
X25194Y5023D01*
X25205Y5022D01*
X25216Y5023D01*
X25227Y5027D01*
X25236Y5034D01*
X25243Y5043D01*
X25247Y5054D01*
X25248Y5065D01*
X25247Y5076D01*
X25243Y5087D01*
X25236Y5096D01*
X25227Y5103D01*
X25216Y5107D01*
X25205Y5108D01*
D02*
G37*
G36*
X23252Y5028D02*
X23241Y5027D01*
X23231Y5023D01*
X23222Y5016D01*
X23215Y5007D01*
X23210Y4996D01*
X23209Y4985D01*
X23210Y4974D01*
X23215Y4963D01*
X23222Y4954D01*
X23231Y4947D01*
X23241Y4943D01*
X23252Y4942D01*
X23263Y4943D01*
X23274Y4947D01*
X23283Y4954D01*
X23290Y4963D01*
X23294Y4974D01*
X23296Y4985D01*
X23294Y4996D01*
X23290Y5007D01*
X23283Y5016D01*
X23274Y5023D01*
X23263Y5027D01*
X23252Y5028D01*
D02*
G37*
G36*
X23750Y4932D02*
X23730D01*
X23718Y4931D01*
X23706Y4926D01*
X23696Y4919D01*
X23689Y4909D01*
X23684Y4897D01*
X23683Y4885D01*
X23684Y4873D01*
X23689Y4861D01*
X23696Y4851D01*
X23706Y4844D01*
X23718Y4839D01*
X23730Y4838D01*
X23750D01*
X23762Y4839D01*
X23774Y4844D01*
X23784Y4851D01*
X23791Y4861D01*
X23796Y4873D01*
X23797Y4885D01*
X23796Y4897D01*
X23791Y4909D01*
X23784Y4919D01*
X23774Y4926D01*
X23762Y4931D01*
X23750Y4932D01*
D02*
G37*
G36*
X24591Y4913D02*
X24549D01*
X24527Y4891D01*
Y4848D01*
X24549Y4827D01*
X24591D01*
X24613Y4848D01*
Y4891D01*
X24591Y4913D01*
D02*
G37*
G36*
X26805Y4913D02*
X26794Y4912D01*
X26783Y4908D01*
X26774Y4901D01*
X26767Y4892D01*
X26763Y4881D01*
X26762Y4870D01*
X26763Y4859D01*
X26767Y4848D01*
X26774Y4839D01*
X26783Y4832D01*
X26794Y4828D01*
X26805Y4827D01*
X26816Y4828D01*
X26827Y4832D01*
X26836Y4839D01*
X26843Y4848D01*
X26847Y4859D01*
X26848Y4870D01*
X26847Y4881D01*
X26843Y4892D01*
X26836Y4901D01*
X26827Y4908D01*
X26816Y4912D01*
X26805Y4913D01*
D02*
G37*
G36*
X26705D02*
X26694Y4912D01*
X26683Y4908D01*
X26674Y4901D01*
X26667Y4892D01*
X26663Y4881D01*
X26662Y4870D01*
X26663Y4859D01*
X26667Y4848D01*
X26674Y4839D01*
X26683Y4832D01*
X26694Y4828D01*
X26705Y4827D01*
X26716Y4828D01*
X26727Y4832D01*
X26736Y4839D01*
X26743Y4848D01*
X26747Y4859D01*
X26748Y4870D01*
X26747Y4881D01*
X26743Y4892D01*
X26736Y4901D01*
X26727Y4908D01*
X26716Y4912D01*
X26705Y4913D01*
D02*
G37*
G36*
X26605D02*
X26594Y4912D01*
X26583Y4908D01*
X26574Y4901D01*
X26567Y4892D01*
X26563Y4881D01*
X26562Y4870D01*
X26563Y4859D01*
X26567Y4848D01*
X26574Y4839D01*
X26583Y4832D01*
X26594Y4828D01*
X26605Y4827D01*
X26616Y4828D01*
X26627Y4832D01*
X26636Y4839D01*
X26643Y4848D01*
X26647Y4859D01*
X26648Y4870D01*
X26647Y4881D01*
X26643Y4892D01*
X26636Y4901D01*
X26627Y4908D01*
X26616Y4912D01*
X26605Y4913D01*
D02*
G37*
G36*
X26505D02*
X26494Y4912D01*
X26483Y4908D01*
X26474Y4901D01*
X26467Y4892D01*
X26463Y4881D01*
X26462Y4870D01*
X26463Y4859D01*
X26467Y4848D01*
X26474Y4839D01*
X26483Y4832D01*
X26494Y4828D01*
X26505Y4827D01*
X26516Y4828D01*
X26527Y4832D01*
X26536Y4839D01*
X26543Y4848D01*
X26547Y4859D01*
X26548Y4870D01*
X26547Y4881D01*
X26543Y4892D01*
X26536Y4901D01*
X26527Y4908D01*
X26516Y4912D01*
X26505Y4913D01*
D02*
G37*
G36*
X26405D02*
X26394Y4912D01*
X26383Y4908D01*
X26374Y4901D01*
X26367Y4892D01*
X26363Y4881D01*
X26362Y4870D01*
X26363Y4859D01*
X26367Y4848D01*
X26374Y4839D01*
X26383Y4832D01*
X26394Y4828D01*
X26405Y4827D01*
X26416Y4828D01*
X26427Y4832D01*
X26436Y4839D01*
X26443Y4848D01*
X26447Y4859D01*
X26448Y4870D01*
X26447Y4881D01*
X26443Y4892D01*
X26436Y4901D01*
X26427Y4908D01*
X26416Y4912D01*
X26405Y4913D01*
D02*
G37*
G36*
X26305D02*
X26294Y4912D01*
X26283Y4908D01*
X26274Y4901D01*
X26267Y4892D01*
X26263Y4881D01*
X26262Y4870D01*
X26263Y4859D01*
X26267Y4848D01*
X26274Y4839D01*
X26283Y4832D01*
X26294Y4828D01*
X26305Y4827D01*
X26316Y4828D01*
X26327Y4832D01*
X26336Y4839D01*
X26343Y4848D01*
X26347Y4859D01*
X26348Y4870D01*
X26347Y4881D01*
X26343Y4892D01*
X26336Y4901D01*
X26327Y4908D01*
X26316Y4912D01*
X26305Y4913D01*
D02*
G37*
G36*
X26205D02*
X26194Y4912D01*
X26183Y4908D01*
X26174Y4901D01*
X26167Y4892D01*
X26163Y4881D01*
X26162Y4870D01*
X26163Y4859D01*
X26167Y4848D01*
X26174Y4839D01*
X26183Y4832D01*
X26194Y4828D01*
X26205Y4827D01*
X26216Y4828D01*
X26227Y4832D01*
X26236Y4839D01*
X26243Y4848D01*
X26247Y4859D01*
X26248Y4870D01*
X26247Y4881D01*
X26243Y4892D01*
X26236Y4901D01*
X26227Y4908D01*
X26216Y4912D01*
X26205Y4913D01*
D02*
G37*
G36*
X26105D02*
X26094Y4912D01*
X26083Y4908D01*
X26074Y4901D01*
X26067Y4892D01*
X26063Y4881D01*
X26062Y4870D01*
X26063Y4859D01*
X26067Y4848D01*
X26074Y4839D01*
X26083Y4832D01*
X26094Y4828D01*
X26105Y4827D01*
X26116Y4828D01*
X26127Y4832D01*
X26136Y4839D01*
X26143Y4848D01*
X26147Y4859D01*
X26148Y4870D01*
X26147Y4881D01*
X26143Y4892D01*
X26136Y4901D01*
X26127Y4908D01*
X26116Y4912D01*
X26105Y4913D01*
D02*
G37*
G36*
X26005D02*
X25994Y4912D01*
X25983Y4908D01*
X25974Y4901D01*
X25967Y4892D01*
X25963Y4881D01*
X25962Y4870D01*
X25963Y4859D01*
X25967Y4848D01*
X25974Y4839D01*
X25983Y4832D01*
X25994Y4828D01*
X26005Y4827D01*
X26016Y4828D01*
X26027Y4832D01*
X26036Y4839D01*
X26043Y4848D01*
X26047Y4859D01*
X26048Y4870D01*
X26047Y4881D01*
X26043Y4892D01*
X26036Y4901D01*
X26027Y4908D01*
X26016Y4912D01*
X26005Y4913D01*
D02*
G37*
G36*
X25905D02*
X25894Y4912D01*
X25883Y4908D01*
X25874Y4901D01*
X25867Y4892D01*
X25863Y4881D01*
X25862Y4870D01*
X25863Y4859D01*
X25867Y4848D01*
X25874Y4839D01*
X25883Y4832D01*
X25894Y4828D01*
X25905Y4827D01*
X25916Y4828D01*
X25927Y4832D01*
X25936Y4839D01*
X25943Y4848D01*
X25947Y4859D01*
X25948Y4870D01*
X25947Y4881D01*
X25943Y4892D01*
X25936Y4901D01*
X25927Y4908D01*
X25916Y4912D01*
X25905Y4913D01*
D02*
G37*
G36*
X25805D02*
X25794Y4912D01*
X25783Y4908D01*
X25774Y4901D01*
X25767Y4892D01*
X25763Y4881D01*
X25762Y4870D01*
X25763Y4859D01*
X25767Y4848D01*
X25774Y4839D01*
X25783Y4832D01*
X25794Y4828D01*
X25805Y4827D01*
X25816Y4828D01*
X25827Y4832D01*
X25836Y4839D01*
X25843Y4848D01*
X25847Y4859D01*
X25848Y4870D01*
X25847Y4881D01*
X25843Y4892D01*
X25836Y4901D01*
X25827Y4908D01*
X25816Y4912D01*
X25805Y4913D01*
D02*
G37*
G36*
X25705D02*
X25694Y4912D01*
X25683Y4908D01*
X25674Y4901D01*
X25667Y4892D01*
X25663Y4881D01*
X25662Y4870D01*
X25663Y4859D01*
X25667Y4848D01*
X25674Y4839D01*
X25683Y4832D01*
X25694Y4828D01*
X25705Y4827D01*
X25716Y4828D01*
X25727Y4832D01*
X25736Y4839D01*
X25743Y4848D01*
X25747Y4859D01*
X25748Y4870D01*
X25747Y4881D01*
X25743Y4892D01*
X25736Y4901D01*
X25727Y4908D01*
X25716Y4912D01*
X25705Y4913D01*
D02*
G37*
G36*
X25605D02*
X25594Y4912D01*
X25583Y4908D01*
X25574Y4901D01*
X25567Y4892D01*
X25563Y4881D01*
X25562Y4870D01*
X25563Y4859D01*
X25567Y4848D01*
X25574Y4839D01*
X25583Y4832D01*
X25594Y4828D01*
X25605Y4827D01*
X25616Y4828D01*
X25627Y4832D01*
X25636Y4839D01*
X25643Y4848D01*
X25647Y4859D01*
X25648Y4870D01*
X25647Y4881D01*
X25643Y4892D01*
X25636Y4901D01*
X25627Y4908D01*
X25616Y4912D01*
X25605Y4913D01*
D02*
G37*
G36*
X25505D02*
X25494Y4912D01*
X25483Y4908D01*
X25474Y4901D01*
X25467Y4892D01*
X25463Y4881D01*
X25462Y4870D01*
X25463Y4859D01*
X25467Y4848D01*
X25474Y4839D01*
X25483Y4832D01*
X25494Y4828D01*
X25505Y4827D01*
X25516Y4828D01*
X25527Y4832D01*
X25536Y4839D01*
X25543Y4848D01*
X25547Y4859D01*
X25548Y4870D01*
X25547Y4881D01*
X25543Y4892D01*
X25536Y4901D01*
X25527Y4908D01*
X25516Y4912D01*
X25505Y4913D01*
D02*
G37*
G36*
X25405D02*
X25394Y4912D01*
X25383Y4908D01*
X25374Y4901D01*
X25367Y4892D01*
X25363Y4881D01*
X25362Y4870D01*
X25363Y4859D01*
X25367Y4848D01*
X25374Y4839D01*
X25383Y4832D01*
X25394Y4828D01*
X25405Y4827D01*
X25416Y4828D01*
X25427Y4832D01*
X25436Y4839D01*
X25443Y4848D01*
X25447Y4859D01*
X25448Y4870D01*
X25447Y4881D01*
X25443Y4892D01*
X25436Y4901D01*
X25427Y4908D01*
X25416Y4912D01*
X25405Y4913D01*
D02*
G37*
G36*
X25305D02*
X25294Y4912D01*
X25283Y4908D01*
X25274Y4901D01*
X25267Y4892D01*
X25263Y4881D01*
X25262Y4870D01*
X25263Y4859D01*
X25267Y4848D01*
X25274Y4839D01*
X25283Y4832D01*
X25294Y4828D01*
X25305Y4827D01*
X25316Y4828D01*
X25327Y4832D01*
X25336Y4839D01*
X25343Y4848D01*
X25347Y4859D01*
X25348Y4870D01*
X25347Y4881D01*
X25343Y4892D01*
X25336Y4901D01*
X25327Y4908D01*
X25316Y4912D01*
X25305Y4913D01*
D02*
G37*
G36*
X25205D02*
X25194Y4912D01*
X25183Y4908D01*
X25174Y4901D01*
X25167Y4892D01*
X25163Y4881D01*
X25162Y4870D01*
X25163Y4859D01*
X25167Y4848D01*
X25174Y4839D01*
X25183Y4832D01*
X25194Y4828D01*
X25205Y4827D01*
X25216Y4828D01*
X25227Y4832D01*
X25236Y4839D01*
X25243Y4848D01*
X25247Y4859D01*
X25248Y4870D01*
X25247Y4881D01*
X25243Y4892D01*
X25236Y4901D01*
X25227Y4908D01*
X25216Y4912D01*
X25205Y4913D01*
D02*
G37*
G36*
X24470D02*
X24459Y4912D01*
X24448Y4908D01*
X24439Y4901D01*
X24432Y4892D01*
X24428Y4881D01*
X24427Y4870D01*
X24428Y4859D01*
X24432Y4848D01*
X24439Y4839D01*
X24448Y4832D01*
X24459Y4828D01*
X24470Y4827D01*
X24481Y4828D01*
X24492Y4832D01*
X24501Y4839D01*
X24508Y4848D01*
X24512Y4859D01*
X24513Y4870D01*
X24512Y4881D01*
X24508Y4892D01*
X24501Y4901D01*
X24492Y4908D01*
X24481Y4912D01*
X24470Y4913D01*
D02*
G37*
G36*
X24370D02*
X24359Y4912D01*
X24348Y4908D01*
X24339Y4901D01*
X24332Y4892D01*
X24328Y4881D01*
X24327Y4870D01*
X24328Y4859D01*
X24332Y4848D01*
X24339Y4839D01*
X24348Y4832D01*
X24359Y4828D01*
X24370Y4827D01*
X24381Y4828D01*
X24392Y4832D01*
X24401Y4839D01*
X24408Y4848D01*
X24412Y4859D01*
X24413Y4870D01*
X24412Y4881D01*
X24408Y4892D01*
X24401Y4901D01*
X24392Y4908D01*
X24381Y4912D01*
X24370Y4913D01*
D02*
G37*
G36*
X24270D02*
X24259Y4912D01*
X24248Y4908D01*
X24239Y4901D01*
X24232Y4892D01*
X24228Y4881D01*
X24227Y4870D01*
X24228Y4859D01*
X24232Y4848D01*
X24239Y4839D01*
X24248Y4832D01*
X24259Y4828D01*
X24270Y4827D01*
X24281Y4828D01*
X24292Y4832D01*
X24301Y4839D01*
X24308Y4848D01*
X24312Y4859D01*
X24313Y4870D01*
X24312Y4881D01*
X24308Y4892D01*
X24301Y4901D01*
X24292Y4908D01*
X24281Y4912D01*
X24270Y4913D01*
D02*
G37*
G36*
X27392Y4728D02*
X27348D01*
X27327Y4707D01*
Y4663D01*
X27348Y4642D01*
X27392D01*
X27413Y4663D01*
Y4707D01*
X27392Y4728D01*
D02*
G37*
G36*
X27670Y4728D02*
X27659Y4727D01*
X27648Y4723D01*
X27639Y4716D01*
X27632Y4707D01*
X27628Y4696D01*
X27627Y4685D01*
X27628Y4674D01*
X27632Y4663D01*
X27639Y4654D01*
X27648Y4647D01*
X27659Y4643D01*
X27670Y4642D01*
X27681Y4643D01*
X27692Y4647D01*
X27701Y4654D01*
X27708Y4663D01*
X27712Y4674D01*
X27713Y4685D01*
X27712Y4696D01*
X27708Y4707D01*
X27701Y4716D01*
X27692Y4723D01*
X27681Y4727D01*
X27670Y4728D01*
D02*
G37*
G36*
X27570Y5002D02*
X27563Y5001D01*
X27556Y4999D01*
X27551Y4994D01*
X27546Y4989D01*
X27544Y4982D01*
X27543Y4975D01*
X27544Y4968D01*
X27546Y4961D01*
X27550Y4957D01*
Y4723D01*
X27548Y4723D01*
X27539Y4716D01*
X27532Y4707D01*
X27528Y4696D01*
X27527Y4685D01*
X27528Y4674D01*
X27532Y4663D01*
X27539Y4654D01*
X27548Y4647D01*
X27559Y4643D01*
X27570Y4642D01*
X27581Y4643D01*
X27592Y4647D01*
X27601Y4654D01*
X27608Y4663D01*
X27612Y4674D01*
X27613Y4685D01*
X27612Y4696D01*
X27608Y4707D01*
X27601Y4716D01*
X27592Y4723D01*
X27590Y4723D01*
Y4957D01*
X27594Y4961D01*
X27596Y4968D01*
X27597Y4975D01*
X27596Y4982D01*
X27594Y4989D01*
X27589Y4994D01*
X27584Y4999D01*
X27577Y5001D01*
X27570Y5002D01*
D02*
G37*
G36*
X28005Y4700D02*
X27981Y4698D01*
X27959Y4693D01*
X27937Y4684D01*
X27917Y4672D01*
X27899Y4656D01*
X27883Y4638D01*
X27871Y4618D01*
X27862Y4596D01*
X27857Y4574D01*
X27855Y4550D01*
X27857Y4526D01*
X27862Y4504D01*
X27871Y4482D01*
X27883Y4462D01*
X27899Y4444D01*
X27917Y4428D01*
X27937Y4416D01*
X27959Y4407D01*
X27981Y4402D01*
X28005Y4400D01*
X28029Y4402D01*
X28051Y4407D01*
X28073Y4416D01*
X28093Y4428D01*
X28111Y4444D01*
X28127Y4462D01*
X28139Y4482D01*
X28148Y4504D01*
X28153Y4526D01*
X28155Y4550D01*
X28153Y4574D01*
X28148Y4596D01*
X28139Y4618D01*
X28127Y4638D01*
X28111Y4656D01*
X28093Y4672D01*
X28073Y4684D01*
X28051Y4693D01*
X28029Y4698D01*
X28005Y4700D01*
D02*
G37*
G36*
X25615D02*
X25591Y4698D01*
X25569Y4693D01*
X25547Y4684D01*
X25527Y4672D01*
X25509Y4656D01*
X25493Y4638D01*
X25481Y4618D01*
X25472Y4596D01*
X25467Y4574D01*
X25465Y4550D01*
X25467Y4526D01*
X25472Y4504D01*
X25481Y4482D01*
X25493Y4462D01*
X25509Y4444D01*
X25527Y4428D01*
X25547Y4416D01*
X25569Y4407D01*
X25591Y4402D01*
X25615Y4400D01*
X25639Y4402D01*
X25661Y4407D01*
X25683Y4416D01*
X25703Y4428D01*
X25721Y4444D01*
X25737Y4462D01*
X25749Y4482D01*
X25758Y4504D01*
X25763Y4526D01*
X25765Y4550D01*
X25763Y4574D01*
X25758Y4596D01*
X25749Y4618D01*
X25737Y4638D01*
X25721Y4656D01*
X25703Y4672D01*
X25683Y4684D01*
X25661Y4693D01*
X25639Y4698D01*
X25615Y4700D01*
D02*
G37*
G36*
X23225D02*
X23201Y4698D01*
X23179Y4693D01*
X23157Y4684D01*
X23137Y4672D01*
X23119Y4656D01*
X23103Y4638D01*
X23091Y4618D01*
X23082Y4596D01*
X23077Y4574D01*
X23075Y4550D01*
X23077Y4526D01*
X23082Y4504D01*
X23091Y4482D01*
X23103Y4462D01*
X23119Y4444D01*
X23137Y4428D01*
X23157Y4416D01*
X23179Y4407D01*
X23201Y4402D01*
X23225Y4400D01*
X23249Y4402D01*
X23271Y4407D01*
X23293Y4416D01*
X23313Y4428D01*
X23331Y4444D01*
X23347Y4462D01*
X23359Y4482D01*
X23368Y4504D01*
X23373Y4526D01*
X23375Y4550D01*
X23373Y4574D01*
X23368Y4596D01*
X23359Y4618D01*
X23347Y4638D01*
X23331Y4656D01*
X23313Y4672D01*
X23293Y4684D01*
X23271Y4693D01*
X23249Y4698D01*
X23225Y4700D01*
D02*
G37*
%LPD*%
D10*
X26758Y6430D02*
Y6738D01*
Y6935D01*
D44*
X27570Y5490D02*
Y5560D01*
Y4685D02*
Y4975D01*
X26805Y5735D02*
Y5965D01*
X27470Y5660D02*
X27570Y5560D01*
X26405Y5140D02*
X26560D01*
X27010Y5945D02*
X27795D01*
X26621Y6738D02*
Y6935D01*
Y6499D02*
Y6738D01*
X26805Y6165D02*
Y6315D01*
X26621Y6499D02*
X26805Y6315D01*
X24800Y6738D02*
Y6935D01*
Y6485D02*
Y6738D01*
X24800Y6485D02*
X24800Y6485D01*
X24387Y6738D02*
Y6935D01*
Y6485D02*
Y6738D01*
X23973D02*
Y6935D01*
Y6485D02*
Y6738D01*
D46*
X27430Y5100D02*
X27840D01*
X27910Y5715D02*
X28060D01*
X27820Y5805D02*
X27910Y5715D01*
X27320Y5805D02*
X27820D01*
X27230Y5715D02*
X27320Y5805D01*
X27140Y5715D02*
X27230D01*
X26830Y5475D02*
Y5570D01*
Y5475D02*
X27205Y5100D01*
X27430D01*
X26830Y5570D02*
X27005Y5745D01*
X25215Y5570D02*
X26830D01*
X25105Y5680D02*
X25215Y5570D01*
X25105Y5680D02*
Y5965D01*
X24470Y6295D02*
X24885D01*
X24055D02*
X24470D01*
X23880D02*
X24055D01*
X23800Y6215D02*
X23880Y6295D01*
X23800Y5580D02*
Y6215D01*
X23799Y5500D02*
X23865Y5434D01*
Y4960D02*
Y5434D01*
X23525Y5540D02*
X23680D01*
X23430Y5445D02*
X23525Y5540D01*
D53*
X24110Y5821D02*
D03*
X24210D02*
D03*
X24310D02*
D03*
X24410D02*
D03*
Y5721D02*
D03*
X24310D02*
D03*
X24210D02*
D03*
X24110D02*
D03*
X24410Y5621D02*
D03*
X24310D02*
D03*
X24210D02*
D03*
X24110D02*
D03*
X24410Y5521D02*
D03*
X24310D02*
D03*
X24210D02*
D03*
X24110D02*
D03*
X24410Y5421D02*
D03*
X24310D02*
D03*
X24210D02*
D03*
X24110D02*
D03*
X24410Y5321D02*
D03*
X24310D02*
D03*
X24210D02*
D03*
X24110D02*
D03*
X24410Y5220D02*
D03*
X24310D02*
D03*
X24210D02*
D03*
X24110D02*
D03*
X24510D02*
D03*
X24610D02*
D03*
X24710D02*
D03*
X24810D02*
D03*
X24510Y5321D02*
D03*
X24610D02*
D03*
X24710D02*
D03*
X24810D02*
D03*
X24510Y5421D02*
D03*
X24610D02*
D03*
X24710D02*
D03*
X24810D02*
D03*
X24510Y5521D02*
D03*
X24610D02*
D03*
X24710D02*
D03*
X24810D02*
D03*
X24510Y5621D02*
D03*
X24610D02*
D03*
X24710D02*
D03*
X24810D02*
D03*
X24510Y5721D02*
D03*
X24610D02*
D03*
X24710D02*
D03*
X24810D02*
D03*
Y5821D02*
D03*
X24710D02*
D03*
X24610D02*
D03*
X24510D02*
D03*
D54*
X24570Y5965D02*
D03*
Y5065D02*
D03*
Y4870D02*
D03*
X25105D02*
D03*
Y6165D02*
D03*
X27370Y4685D02*
D03*
X25105Y5065D02*
D03*
D55*
X24470Y5965D02*
D03*
X24370D02*
D03*
X24270D02*
D03*
X24470Y5065D02*
D03*
X24370D02*
D03*
X24270D02*
D03*
X24470Y4870D02*
D03*
X24370D02*
D03*
X24270D02*
D03*
X25205D02*
D03*
X25305D02*
D03*
X25405D02*
D03*
X25505D02*
D03*
X25605D02*
D03*
X25705D02*
D03*
X25805D02*
D03*
X25905D02*
D03*
X26005D02*
D03*
X26105D02*
D03*
X26205D02*
D03*
X26305D02*
D03*
X26405D02*
D03*
X26505D02*
D03*
X26605D02*
D03*
X26705D02*
D03*
X26805D02*
D03*
X25205Y6165D02*
D03*
X25305D02*
D03*
X25405D02*
D03*
X25505D02*
D03*
X25605D02*
D03*
X25705D02*
D03*
X25805D02*
D03*
X25905D02*
D03*
X26005D02*
D03*
X26105D02*
D03*
X26205D02*
D03*
X26305D02*
D03*
X26405D02*
D03*
X26505D02*
D03*
X26605D02*
D03*
X26705D02*
D03*
X26805D02*
D03*
X27670Y4685D02*
D03*
X27570D02*
D03*
X27470D02*
D03*
X26505Y5965D02*
D03*
X26405D02*
D03*
X26305D02*
D03*
X26205D02*
D03*
X26105D02*
D03*
X26005D02*
D03*
X25905D02*
D03*
X25805D02*
D03*
X25205D02*
D03*
X25305D02*
D03*
X25405D02*
D03*
X25505D02*
D03*
X25605D02*
D03*
X25705D02*
D03*
X26605D02*
D03*
X26705D02*
D03*
X26805D02*
D03*
Y5065D02*
D03*
X26705D02*
D03*
X26605D02*
D03*
X25705D02*
D03*
X25605D02*
D03*
X25505D02*
D03*
X25405D02*
D03*
X25305D02*
D03*
X25205D02*
D03*
X25805D02*
D03*
X25905D02*
D03*
X26005D02*
D03*
X26105D02*
D03*
X26205D02*
D03*
X26305D02*
D03*
X26405D02*
D03*
X26505D02*
D03*
X25105Y5965D02*
D03*
X23252Y4985D02*
D03*
X23390D02*
D03*
D56*
X27395Y5380D02*
D03*
Y6280D02*
D03*
X27800Y5380D02*
D03*
Y6280D02*
D03*
X23225Y6440D02*
D03*
Y5540D02*
D03*
D57*
X27723Y6935D02*
D03*
Y6738D02*
D03*
X27447Y6935D02*
D03*
Y6738D02*
D03*
X26483Y6935D02*
D03*
X26621D02*
D03*
Y6738D02*
D03*
X26483D02*
D03*
X26758D02*
D03*
Y6935D02*
D03*
X23698D02*
D03*
Y6738D02*
D03*
X27034D02*
D03*
X27172D02*
D03*
Y6935D02*
D03*
X27034D02*
D03*
X24800Y6738D02*
D03*
X24938D02*
D03*
Y6935D02*
D03*
X24800D02*
D03*
X24387Y6738D02*
D03*
X24525D02*
D03*
Y6935D02*
D03*
X24387D02*
D03*
X23973Y6738D02*
D03*
X24111D02*
D03*
Y6935D02*
D03*
X23973D02*
D03*
D58*
X27585D02*
D03*
Y6738D02*
D03*
X27310Y6935D02*
D03*
Y6738D02*
D03*
X26345Y6935D02*
D03*
Y6738D02*
D03*
X23560Y6935D02*
D03*
Y6738D02*
D03*
X26896D02*
D03*
Y6935D02*
D03*
X24662Y6738D02*
D03*
Y6935D02*
D03*
X24249Y6738D02*
D03*
Y6935D02*
D03*
X23836Y6738D02*
D03*
Y6935D02*
D03*
D59*
X25615Y6830D02*
D03*
X28005Y4550D02*
D03*
Y6830D02*
D03*
X25615Y4550D02*
D03*
X23225D02*
D03*
Y6830D02*
D03*
D60*
X23740Y4985D02*
D03*
Y4885D02*
D03*
Y5085D02*
D03*
D61*
X27570Y5490D02*
D03*
Y4975D02*
D03*
X26805Y5735D02*
D03*
X27470Y5660D02*
D03*
X26405Y5140D02*
D03*
X26560D02*
D03*
X27795Y5945D02*
D03*
X27010D02*
D03*
X26758Y6430D02*
D03*
X24800Y6485D02*
D03*
X24387D02*
D03*
X23973D02*
D03*
D62*
X23865Y4960D02*
D03*
X28140Y5680D02*
D03*
X28060Y5715D02*
D03*
X27885Y5145D02*
D03*
X27840Y5100D02*
D03*
X27895Y5045D02*
D03*
X27490D02*
D03*
X27430Y5100D02*
D03*
X27480Y5145D02*
D03*
X27005Y5745D02*
D03*
X27140Y5715D02*
D03*
X27120Y6300D02*
D03*
X24885Y6295D02*
D03*
X24470D02*
D03*
X24055D02*
D03*
X23380Y5445D02*
D03*
X23430D02*
D03*
X23680Y5500D02*
D03*
Y5540D02*
D03*
Y5580D02*
D03*
X23800D02*
D03*
X23799Y5500D02*
D03*
X23800Y5540D02*
D03*
M02*
